<svg width="42" height="58" viewBox="0 0 42 58" fill="none" xmlns="http://www.w3.org/2000/svg">
<path d="M17.7061 51.325H17.2424L17.1394 45.5554H17.603L17.7061 51.325Z" fill="url(#paint0_linear_1_468)"/>
<path d="M20.0242 51.2735H19.5605L19.509 45.5554H19.9727L20.0242 51.2735Z" fill="url(#paint1_linear_1_468)"/>
<path d="M22.8574 51.2221H22.4453L22.3423 45.5041H22.8059L22.8574 51.2221Z" fill="url(#paint2_linear_1_468)"/>
<path d="M25.7422 51.1708H25.2786L25.1755 45.4528H25.6392L25.7422 51.1708Z" fill="url(#paint3_linear_1_468)"/>
<path d="M41.4024 20.5198C41.5055 28.1954 37.3843 34.9437 31.2026 38.6012C28.5754 40.1466 26.927 42.8769 26.9785 45.9162V46.1738L22.1362 46.2253H21.7756L18.7878 46.2768H18.3757L15.3363 46.3283V46.0707C15.2848 43.0829 13.6364 40.3527 11.0092 38.9618C8.2274 37.4679 5.85776 35.3558 4.00325 32.7801C1.47906 29.2257 0.0366689 24.7955 0.242725 20.0047C0.551809 12.4321 5.08505 5.83829 11.5243 2.54139C13.9455 1.30506 16.6757 0.53235 19.509 0.326294C19.715 0.326294 19.9211 0.274781 20.1271 0.274781C21.312 0.223267 22.4453 0.274778 23.5786 0.42932C26.5664 0.841433 29.3481 1.87171 31.7693 3.41714C33.7784 4.70499 35.5813 6.30192 37.0237 8.15642C39.7025 11.5563 41.3509 15.832 41.4024 20.5198Z" fill="url(#paint4_linear_1_468)"/>
<path d="M19.509 0.274902C14.9758 5.06571 10.494 16.9654 18.8393 46.2254H18.4272C14.8212 39.8892 1.32456 14.1322 11.5243 2.49C13.9455 1.25367 16.6757 0.480958 19.509 0.274902Z" fill="url(#paint5_linear_1_468)"/>
<path d="M22.1877 46.1736H21.8271C31.2542 17.9439 27.8028 5.6836 23.6301 0.429169C26.618 0.841281 29.3997 1.87156 31.8209 3.41698C40.2692 15.9864 25.7422 40.5586 22.1877 46.1736Z" fill="url(#paint6_linear_1_468)"/>
<path d="M25.2271 57.4554L17.5515 57.5584L16.7273 50.9646L26.0513 50.8101L25.2271 57.4554Z" fill="url(#paint7_linear_1_468)"/>
<defs>
<linearGradient id="paint0_linear_1_468" x1="17.1633" y1="48.4377" x2="17.7016" y2="48.4377" gradientUnits="userSpaceOnUse">
<stop stop-color="white"/>
<stop offset="0.4198" stop-color="#FCFCFC"/>
<stop offset="0.6878" stop-color="#F4F4F4"/>
<stop offset="0.9127" stop-color="#E5E5E5"/>
<stop offset="1" stop-color="#DDDDDD"/>
</linearGradient>
<linearGradient id="paint1_linear_1_468" x1="19.4988" y1="48.4047" x2="20.0369" y2="48.4047" gradientUnits="userSpaceOnUse">
<stop stop-color="white"/>
<stop offset="0.4198" stop-color="#FCFCFC"/>
<stop offset="0.6878" stop-color="#F4F4F4"/>
<stop offset="0.9127" stop-color="#E5E5E5"/>
<stop offset="1" stop-color="#DDDDDD"/>
</linearGradient>
<linearGradient id="paint2_linear_1_468" x1="22.342" y1="48.3645" x2="22.8801" y2="48.3645" gradientUnits="userSpaceOnUse">
<stop stop-color="white"/>
<stop offset="0.4198" stop-color="#FCFCFC"/>
<stop offset="0.6878" stop-color="#F4F4F4"/>
<stop offset="0.9127" stop-color="#E5E5E5"/>
<stop offset="1" stop-color="#DDDDDD"/>
</linearGradient>
<linearGradient id="paint3_linear_1_468" x1="25.1851" y1="48.3244" x2="25.7233" y2="48.3244" gradientUnits="userSpaceOnUse">
<stop stop-color="white"/>
<stop offset="0.4198" stop-color="#FCFCFC"/>
<stop offset="0.6878" stop-color="#F4F4F4"/>
<stop offset="0.9127" stop-color="#E5E5E5"/>
<stop offset="1" stop-color="#DDDDDD"/>
</linearGradient>
<linearGradient id="paint4_linear_1_468" x1="0.237883" y1="23.2566" x2="41.4055" y2="23.2566" gradientUnits="userSpaceOnUse">
<stop stop-color="white"/>
<stop offset="0.4198" stop-color="#FCFCFC"/>
<stop offset="0.6878" stop-color="#F4F4F4"/>
<stop offset="0.9127" stop-color="#E5E5E5"/>
<stop offset="1" stop-color="#DDDDDD"/>
</linearGradient>
<linearGradient id="paint5_linear_1_468" x1="15.7867" y1="-7.6156" x2="12.8241" y2="37.0519" gradientUnits="userSpaceOnUse">
<stop stop-color="white"/>
<stop offset="0.4198" stop-color="#FCFCFC"/>
<stop offset="0.6878" stop-color="#F4F4F4"/>
<stop offset="0.9127" stop-color="#E5E5E5"/>
<stop offset="1" stop-color="#DDDDDD"/>
</linearGradient>
<linearGradient id="paint6_linear_1_468" x1="29.9244" y1="-6.67822" x2="26.9617" y2="37.9894" gradientUnits="userSpaceOnUse">
<stop stop-color="white"/>
<stop offset="0.4198" stop-color="#FCFCFC"/>
<stop offset="0.6878" stop-color="#F4F4F4"/>
<stop offset="0.9127" stop-color="#E5E5E5"/>
<stop offset="1" stop-color="#DDDDDD"/>
</linearGradient>
<linearGradient id="paint7_linear_1_468" x1="16.7318" y1="54.1904" x2="26.0737" y2="54.1904" gradientUnits="userSpaceOnUse">
<stop stop-color="white"/>
<stop offset="0.4198" stop-color="#FCFCFC"/>
<stop offset="0.6878" stop-color="#F4F4F4"/>
<stop offset="0.9127" stop-color="#E5E5E5"/>
<stop offset="1" stop-color="#DDDDDD"/>
</linearGradient>
</defs>
</svg>
