<svg width="56" height="25" viewBox="0 0 56 25" fill="none" xmlns="http://www.w3.org/2000/svg">
<path d="M47.8675 7.20504C47.0948 4.01117 44.107 1.69304 40.7071 1.79607C37.9253 1.8991 35.6072 3.59906 34.5254 5.91719C33.5982 2.87786 30.7649 0.765786 27.468 0.868814C24.6862 0.971842 22.3166 2.72332 21.2348 5.09297C20.05 2.67181 17.4743 1.02336 14.5895 1.12638C11.3441 1.22941 8.71688 3.49603 7.99569 6.48384C7.63509 6.43233 7.22298 6.43233 6.81087 6.43233C2.8958 6.58687 -0.143529 9.88377 0.0110127 13.7988C0.165555 17.7139 3.46245 20.7532 7.37751 20.5987C8.87142 20.5472 10.2108 20.032 11.3441 19.2078C12.6319 21.2684 15.0016 22.6077 17.6288 22.5047C18.6591 22.4532 19.6378 22.1956 20.5136 21.7835C21.853 23.535 24.0166 24.6683 26.3862 24.5653C28.6528 24.4622 30.6618 23.3289 31.8467 21.629C32.3103 21.732 32.8255 21.732 33.3406 21.732C34.3709 21.6805 35.2981 21.4229 36.1739 21.0108C37.5132 22.3502 39.3677 23.1229 41.4283 23.0714C43.2313 23.0198 44.8282 22.2471 46.0646 21.1138C46.7858 21.3199 47.5584 21.4229 48.3312 21.3714C52.2462 21.2169 55.2856 17.92 55.131 14.0049C55.0795 10.0898 51.7826 7.0505 47.8675 7.20504Z" fill="url(#paint0_linear_1_535)"/>
<defs>
<linearGradient id="paint0_linear_1_535" x1="26.9622" y1="41.4823" x2="28.4886" y2="-21.0173" gradientUnits="userSpaceOnUse">
<stop stop-color="white"/>
<stop offset="0.4198" stop-color="#FCFCFC"/>
<stop offset="0.6878" stop-color="#F4F4F4"/>
<stop offset="0.9127" stop-color="#E5E5E5"/>
<stop offset="1" stop-color="#DDDDDD"/>
</linearGradient>
</defs>
</svg>
