<svg width="48" height="25" viewBox="0 0 48 25" fill="none" xmlns="http://www.w3.org/2000/svg">
<path d="M39.9055 8.4781C38.8237 8.4781 37.7935 8.68415 36.8147 9.09626C35.4238 6.82965 32.9512 5.28423 30.0664 5.28423C28.624 5.28423 27.2846 5.69634 26.0998 6.36602C25.1725 3.06912 22.1332 0.596451 18.5272 0.596451C14.2 0.596451 10.6456 4.09941 10.6456 8.4781C10.6456 8.58113 10.6456 8.63264 10.6456 8.73567C10.0274 8.58113 9.35772 8.4781 8.63652 8.4781C4.30934 8.4781 0.754883 11.981 0.754883 16.3597C0.754883 20.6869 4.25783 24.2414 8.63652 24.2414C11.5213 24.2414 13.994 22.696 15.3849 20.3778C16.7758 22.696 19.2484 24.2414 22.1332 24.2414C24.7604 24.2414 27.1301 22.9535 28.521 20.9445C28.9846 21.0475 29.4997 21.099 29.9633 21.099C31.0451 21.099 32.0754 20.893 33.0542 20.4809C34.4451 22.7475 36.9177 24.2929 39.8025 24.2929C44.1297 24.2929 47.6842 20.7899 47.6842 16.4113C47.7357 11.9811 44.2327 8.4781 39.9055 8.4781Z" fill="url(#paint0_linear_1_515)"/>
<defs>
<linearGradient id="paint0_linear_1_515" x1="22.6629" y1="42.2694" x2="26.6938" y2="-21.2949" gradientUnits="userSpaceOnUse">
<stop stop-color="white"/>
<stop offset="0.4198" stop-color="#FCFCFC"/>
<stop offset="0.6878" stop-color="#F4F4F4"/>
<stop offset="0.9127" stop-color="#E5E5E5"/>
<stop offset="1" stop-color="#DDDDDD"/>
</linearGradient>
</defs>
</svg>
