<svg viewBox="0 0 414 281" fill="none" xmlns="http://www.w3.org/2000/svg">
<g filter="url(#filter0_d_7_11779)">
<path d="M283.345 249.002H91.913C73.3426 248.988 55.4975 241.791 42.1136 228.917C28.7297 216.044 20.8447 198.492 20.1092 179.936C19.3737 161.38 25.8447 143.259 38.1676 129.366C50.4906 115.473 67.71 106.886 86.221 105.402C88.8608 86.7624 97.2781 69.419 110.289 55.8123C123.299 42.2056 140.248 33.0204 158.752 29.5488C177.255 26.0772 196.381 28.4939 213.439 36.4591C230.497 44.4243 244.628 57.537 253.845 73.9524C270.75 68.1005 289.015 67.4167 306.31 71.9881C323.605 76.5594 339.146 86.1788 350.952 99.6193C362.757 113.06 370.292 129.712 372.594 147.452C374.896 165.193 371.862 183.217 363.879 199.225C359.194 213.69 350.047 226.299 337.751 235.242C325.455 244.185 310.641 249.002 295.437 249.002H283.345Z" fill="url(#paint0_linear_7_11779)"/>
<path d="M295.437 248.002C303.157 248.002 310.748 246.769 317.998 244.338C325.009 241.987 331.59 238.557 337.56 234.142C343.462 229.777 348.635 224.549 352.936 218.603C357.29 212.582 360.652 205.959 362.928 198.918L362.951 198.845L362.985 198.778C366.011 192.73 368.341 186.333 369.911 179.763C371.526 173.003 372.345 166.017 372.345 159.002C372.345 152.963 371.737 146.928 370.537 141.064C369.368 135.351 367.623 129.73 365.352 124.36C363.121 119.086 360.361 114 357.146 109.242C353.962 104.529 350.306 100.097 346.278 96.0696C342.25 92.0419 337.819 88.3853 333.106 85.2013C328.348 81.9869 323.261 79.2261 317.988 76.9957C312.617 74.724 306.997 72.9793 301.283 71.8101C295.42 70.6103 289.385 70.0019 283.345 70.0019C273.346 70.0019 263.531 71.6476 254.172 74.8932L253.383 75.1671L252.973 74.4386C245.357 60.8968 234.279 49.5241 220.937 41.5503C214.189 37.5177 206.94 34.4015 199.391 32.2882C191.602 30.1079 183.512 29.0024 175.345 29.0024C164.361 29.0024 153.638 30.9794 143.475 34.8785C133.657 38.6451 124.65 44.0862 116.705 51.0504C108.806 57.9747 102.251 66.1446 97.2213 75.3333C92.0685 84.7476 88.7006 94.9097 87.2113 105.537L87.0998 106.333L86.299 106.396C77.3408 107.097 68.7219 109.455 60.6818 113.406C52.8694 117.244 45.8932 122.436 39.947 128.837C27.7289 141.989 21 159.126 21 177.089C21 186.663 22.8748 195.949 26.5723 204.691C28.3495 208.893 30.5492 212.946 33.1102 216.736C35.6472 220.492 38.5607 224.023 41.7699 227.232C44.9791 230.441 48.5104 233.355 52.2655 235.892C56.0565 238.453 60.109 240.653 64.3107 242.43C73.0525 246.127 82.3392 248.002 91.9127 248.002H283.345H295.437ZM295.437 249.002H283.345H91.9127C52.1966 249.002 20 216.805 20 177.089C20 139.288 49.1647 108.299 86.221 105.399C92.3504 61.6598 129.917 28.0024 175.345 28.0024C209.048 28.0024 238.422 46.5257 253.845 73.9484C263.087 70.7431 273.012 69.0019 283.345 69.0019C333.051 69.0019 373.345 109.297 373.345 159.002C373.345 173.458 369.936 187.121 363.879 199.225C354.544 228.111 327.431 249.002 295.437 249.002Z" fill="white" fill-opacity="0.5"/>
</g>
<defs>
<filter id="filter0_d_7_11779" x="1.52588e-05" y="0.00244141" width="413.345" height="281" filterUnits="userSpaceOnUse" color-interpolation-filters="sRGB">
<feFlood flood-opacity="0" result="BackgroundImageFix"/>
<feColorMatrix in="SourceAlpha" type="matrix" values="0 0 0 0 0 0 0 0 0 0 0 0 0 0 0 0 0 0 127 0" result="hardAlpha"/>
<feOffset dx="10" dy="2"/>
<feGaussianBlur stdDeviation="15"/>
<feColorMatrix type="matrix" values="0 0 0 0 0.258824 0 0 0 0 0.627451 0 0 0 0 0.941176 0 0 0 0.596 0"/>
<feBlend mode="normal" in2="BackgroundImageFix" result="effect1_dropShadow_7_11779"/>
<feBlend mode="normal" in="SourceGraphic" in2="effect1_dropShadow_7_11779" result="shape"/>
</filter>
<linearGradient id="paint0_linear_7_11779" x1="196.698" y1="28.0049" x2="299.341" y2="276.169" gradientUnits="userSpaceOnUse">
<stop stop-color="white" stop-opacity="0.604"/>
<stop offset="1" stop-color="white" stop-opacity="0.2"/>
</linearGradient>
</defs>
</svg>
