<svg width="82" height="62" viewBox="0 0 82 62" fill="none" xmlns="http://www.w3.org/2000/svg">
<path d="M36.5121 0.555695L37.5424 2.4102L40.7878 6.8404L41.1483 7.30403L81.3293 61.5998L58.8692 61.4453L0.658325 61.4968L4.36734 55.4181L4.67641 54.903L8.38543 48.5153L8.6945 48.0516L12.4035 41.6639L12.7126 41.2003L16.4216 34.8125L16.7307 34.3489L20.4397 27.9612L20.7488 27.446L24.4578 21.1098L24.7669 20.5946L28.4759 14.2584L28.785 13.7433L32.494 7.40706L32.8031 6.89192L35.5848 2.15263L36.203 0.607212L36.3575 0.813265L36.5121 0.555695Z" fill="url(#paint0_linear_1_346)"/>
<path d="M40.8908 6.84015L41.2514 7.30378H41.1484L38.3151 7.35529L32.494 7.40681L32.8031 6.89167L38.1606 6.84015H40.7878H40.8908Z" fill="url(#paint1_linear_1_346)"/>
<path d="M45.9391 14.052L28.4758 14.2581L28.7849 13.743L45.5785 13.5884L45.9391 14.052Z" fill="url(#paint2_linear_1_346)"/>
<path d="M50.6785 20.8006L24.4579 21.1097L24.767 20.5945L50.3179 20.3369L50.6785 20.8006Z" fill="url(#paint3_linear_1_346)"/>
<path d="M55.3661 27.5489L20.4396 27.961L20.7486 27.4458L55.0055 27.0852L55.3661 27.5489Z" fill="url(#paint4_linear_1_346)"/>
<path d="M60.1055 34.2971L16.4216 34.8123L16.7307 34.3486L59.7449 33.8335L60.1055 34.2971Z" fill="url(#paint5_linear_1_346)"/>
<path d="M64.7933 41.0454L12.4036 41.6636L12.7127 41.1999L64.4843 40.5818L64.7933 41.0454Z" fill="url(#paint6_linear_1_346)"/>
<path d="M69.5326 47.7937L8.3855 48.5149L8.69457 48.0513L69.172 47.3301L69.5326 47.7937Z" fill="url(#paint7_linear_1_346)"/>
<path d="M74.2718 54.5938L4.36731 55.418L4.67638 54.9028L73.9112 54.0786L74.2718 54.5938Z" fill="url(#paint8_linear_1_346)"/>
<path d="M37.5424 2.40987L40.7878 6.84007H40.8908L41.2514 7.35521H41.1484L81.3293 61.651L58.8692 61.4964C54.6966 50.6785 49.9573 38.4182 45.8877 27.7033C45.8362 27.5487 45.7332 27.3942 45.6817 27.1881C44.8574 25.0245 44.0847 22.9124 43.312 20.9034C43.2605 20.7489 43.1575 20.5428 43.106 20.3883C42.2817 18.1732 41.509 16.0611 40.7878 14.1035C40.7363 13.949 40.6333 13.7429 40.5818 13.5884C39.706 11.2188 38.9333 9.10669 38.3151 7.3037C38.2636 7.14916 38.2121 6.99462 38.1606 6.78856C36.8212 3.07955 36.1 0.761418 36.2031 0.555362L36.3576 0.761415L36.5121 0.503845L37.5424 2.40987Z" fill="url(#paint9_linear_1_346)"/>
<defs>
<linearGradient id="paint0_linear_1_346" x1="40.9842" y1="61.6256" x2="40.9842" y2="0.560798" gradientUnits="userSpaceOnUse">
<stop stop-color="white"/>
<stop offset="0.4198" stop-color="#FCFCFC"/>
<stop offset="0.6878" stop-color="#F4F4F4"/>
<stop offset="0.9127" stop-color="#E5E5E5"/>
<stop offset="1" stop-color="#DDDDDD"/>
</linearGradient>
<linearGradient id="paint1_linear_1_346" x1="36.8606" y1="7.41103" x2="36.8606" y2="6.81717" gradientUnits="userSpaceOnUse">
<stop stop-color="white"/>
<stop offset="0.4198" stop-color="#FCFCFC"/>
<stop offset="0.6878" stop-color="#F4F4F4"/>
<stop offset="0.9127" stop-color="#E5E5E5"/>
<stop offset="1" stop-color="#DDDDDD"/>
</linearGradient>
<linearGradient id="paint2_linear_1_346" x1="37.2078" y1="14.277" x2="37.2078" y2="13.5652" gradientUnits="userSpaceOnUse">
<stop stop-color="white"/>
<stop offset="0.4198" stop-color="#FCFCFC"/>
<stop offset="0.6878" stop-color="#F4F4F4"/>
<stop offset="0.9127" stop-color="#E5E5E5"/>
<stop offset="1" stop-color="#DDDDDD"/>
</linearGradient>
<linearGradient id="paint3_linear_1_346" x1="37.56" y1="21.1286" x2="37.56" y2="20.314" gradientUnits="userSpaceOnUse">
<stop stop-color="white"/>
<stop offset="0.4198" stop-color="#FCFCFC"/>
<stop offset="0.6878" stop-color="#F4F4F4"/>
<stop offset="0.9127" stop-color="#E5E5E5"/>
<stop offset="1" stop-color="#DDDDDD"/>
</linearGradient>
<linearGradient id="paint4_linear_1_346" x1="37.9117" y1="27.98" x2="37.9117" y2="27.0623" gradientUnits="userSpaceOnUse">
<stop stop-color="white"/>
<stop offset="0.4198" stop-color="#FCFCFC"/>
<stop offset="0.6878" stop-color="#F4F4F4"/>
<stop offset="0.9127" stop-color="#E5E5E5"/>
<stop offset="1" stop-color="#DDDDDD"/>
</linearGradient>
<linearGradient id="paint5_linear_1_346" x1="38.2639" y1="34.8312" x2="38.2639" y2="33.8217" gradientUnits="userSpaceOnUse">
<stop stop-color="white"/>
<stop offset="0.4198" stop-color="#FCFCFC"/>
<stop offset="0.6878" stop-color="#F4F4F4"/>
<stop offset="0.9127" stop-color="#E5E5E5"/>
<stop offset="1" stop-color="#DDDDDD"/>
</linearGradient>
<linearGradient id="paint6_linear_1_346" x1="38.6116" y1="41.6826" x2="38.6116" y2="40.57" gradientUnits="userSpaceOnUse">
<stop stop-color="white"/>
<stop offset="0.4198" stop-color="#FCFCFC"/>
<stop offset="0.6878" stop-color="#F4F4F4"/>
<stop offset="0.9127" stop-color="#E5E5E5"/>
<stop offset="1" stop-color="#DDDDDD"/>
</linearGradient>
<linearGradient id="paint7_linear_1_346" x1="38.9637" y1="48.5339" x2="38.9637" y2="47.3184" gradientUnits="userSpaceOnUse">
<stop stop-color="white"/>
<stop offset="0.4198" stop-color="#FCFCFC"/>
<stop offset="0.6878" stop-color="#F4F4F4"/>
<stop offset="0.9127" stop-color="#E5E5E5"/>
<stop offset="1" stop-color="#DDDDDD"/>
</linearGradient>
<linearGradient id="paint8_linear_1_346" x1="39.3157" y1="55.3968" x2="39.3157" y2="54.0671" gradientUnits="userSpaceOnUse">
<stop stop-color="white"/>
<stop offset="0.4198" stop-color="#FCFCFC"/>
<stop offset="0.6878" stop-color="#F4F4F4"/>
<stop offset="0.9127" stop-color="#E5E5E5"/>
<stop offset="1" stop-color="#DDDDDD"/>
</linearGradient>
<linearGradient id="paint9_linear_1_346" x1="36.0159" y1="-24.158" x2="66.5539" y2="52.6426" gradientUnits="userSpaceOnUse">
<stop stop-color="white"/>
<stop offset="0.4198" stop-color="#FCFCFC"/>
<stop offset="0.6878" stop-color="#F4F4F4"/>
<stop offset="0.9127" stop-color="#E5E5E5"/>
<stop offset="1" stop-color="#DDDDDD"/>
</linearGradient>
</defs>
</svg>
