<svg viewBox="0 0 16 18" fill="none" xmlns="http://www.w3.org/2000/svg">
<path d="M14.9016 8.66101C14.9016 8.18501 14.8626 7.70701 14.7806 7.23901H8.14062V9.93401H11.9426C11.8642 10.3653 11.699 10.7762 11.4572 11.1418C11.2154 11.5074 10.9018 11.8201 10.5356 12.061V13.811H12.8046C14.1366 12.591 14.9016 10.791 14.9016 8.66101Z" fill="#4285F4"/>
<path d="M8.14156 15.5C10.0396 15.5 11.6406 14.88 12.8066 13.81L10.5386 12.061C9.90756 12.488 9.09256 12.73 8.14356 12.73C6.30756 12.73 4.75056 11.498 4.19156 9.84204H1.85156V11.645C2.44116 12.8063 3.34115 13.7813 4.45153 14.4618C5.56192 15.1424 6.83923 15.5017 8.14156 15.5Z" fill="#34A853"/>
<path d="M4.18843 9.84189C3.89355 8.97289 3.89355 8.03088 4.18843 7.16189V5.35889H1.85043C1.35808 6.33344 1.10156 7.41003 1.10156 8.50189C1.10156 9.59375 1.35808 10.6703 1.85043 11.6449L4.18843 9.84189Z" fill="#FBBC04"/>
<path d="M8.14156 4.27002C9.14419 4.25376 10.1133 4.63066 10.8416 5.32002L12.8516 3.32102C11.5741 2.13108 9.88722 1.47924 8.14156 1.50102C6.83887 1.49937 5.56125 1.8591 4.45079 2.5402C3.34033 3.2213 2.44057 4.19708 1.85156 5.35902L4.18756 7.16002C4.74356 5.50202 6.30356 4.27002 8.13956 4.27002H8.14156Z" fill="#EA4335"/>
</svg>
