<svg viewBox="0 0 403 310" fill="none" xmlns="http://www.w3.org/2000/svg">
<g clip-path="url(#clip0_113_14)">
<path d="M290.38 245.185L265.007 302.164" stroke="#42A0F0" stroke-width="6.00313" stroke-linecap="round"/>
<path d="M284.063 259.062L298.387 253.302" stroke="#42A0F0" stroke-width="6.00313" stroke-linecap="round"/>
<path d="M284.063 259.063L278.444 244.422" stroke="#42A0F0" stroke-width="6.00313" stroke-linecap="round"/>
<path d="M270.531 289.451L275.833 303.951" stroke="#42A0F0" stroke-width="6.00313" stroke-linecap="round"/>
<path d="M270.531 289.451L255.891 295.07" stroke="#42A0F0" stroke-width="6.00313" stroke-linecap="round"/>
<path d="M308.468 270.592L246.437 277.108" stroke="#42A0F0" stroke-width="6.00313" stroke-linecap="round"/>
<path d="M293.291 272.06L305.441 281.584" stroke="#42A0F0" stroke-width="6.00313" stroke-linecap="round"/>
<path d="M293.291 272.06L303.161 259.874" stroke="#42A0F0" stroke-width="6.00313" stroke-linecap="round"/>
<path d="M260.208 275.535L250.302 287.377" stroke="#42A0F0" stroke-width="6.00313" stroke-linecap="round"/>
<path d="M260.208 275.535L248.021 265.666" stroke="#42A0F0" stroke-width="6.00313" stroke-linecap="round"/>
<path d="M295.509 298.96L258.85 248.497" stroke="#42A0F0" stroke-width="6.00313" stroke-linecap="round"/>
<path d="M286.649 286.551L284.476 301.835" stroke="#42A0F0" stroke-width="6.00313" stroke-linecap="round"/>
<path d="M286.649 286.551L302.138 289.005" stroke="#42A0F0" stroke-width="6.00313" stroke-linecap="round"/>
<path d="M267.098 259.637L251.89 256.979" stroke="#42A0F0" stroke-width="6.00313" stroke-linecap="round"/>
<path d="M267.098 259.637L269.552 244.149" stroke="#42A0F0" stroke-width="6.00313" stroke-linecap="round"/>
<path d="M124.044 177.771L190.727 284.464" stroke="#42A0F0" stroke-width="9" stroke-linecap="round"/>
<path d="M140.132 203.985L146.652 173.533" stroke="#42A0F0" stroke-width="9" stroke-linecap="round"/>
<path d="M140.132 203.985L109.309 196.872" stroke="#42A0F0" stroke-width="9" stroke-linecap="round"/>
<path d="M175.696 260.888L205.927 268.371" stroke="#42A0F0" stroke-width="9" stroke-linecap="round"/>
<path d="M175.696 260.888L168.583 291.711" stroke="#42A0F0" stroke-width="9" stroke-linecap="round"/>
<path d="M186.936 176.17L127.879 287.266" stroke="#42A0F0" stroke-width="9" stroke-linecap="round"/>
<path d="M172.278 203.21L201.911 193.63" stroke="#42A0F0" stroke-width="9" stroke-linecap="round"/>
<path d="M172.278 203.21L163.026 172.959" stroke="#42A0F0" stroke-width="9" stroke-linecap="round"/>
<path d="M140.781 262.46L149.415 292.382" stroke="#42A0F0" stroke-width="9" stroke-linecap="round"/>
<path d="M140.781 262.46L110.531 271.712" stroke="#42A0F0" stroke-width="9" stroke-linecap="round"/>
<path d="M219.768 229.835L94.0279 234.238" stroke="#42A0F0" stroke-width="9" stroke-linecap="round"/>
<path d="M189.022 230.661L212.135 251.534" stroke="#42A0F0" stroke-width="9" stroke-linecap="round"/>
<path d="M189.022 230.661L210.594 207.524" stroke="#42A0F0" stroke-width="9" stroke-linecap="round"/>
<path d="M121.961 233.009L100.365 255.447" stroke="#42A0F0" stroke-width="9" stroke-linecap="round"/>
<path d="M121.961 233.009L98.824 211.437" stroke="#42A0F0" stroke-width="9" stroke-linecap="round"/>
<g filter="url(#filter0_d_113_14)">
<path d="M280.345 238H88.913C70.3426 237.986 52.4975 230.789 39.1136 217.915C25.7297 205.041 17.8447 187.489 17.1092 168.933C16.3736 150.377 22.8447 132.256 35.1676 118.364C47.4906 104.471 64.7099 95.8839 83.221 94.3999C85.8608 75.7599 94.278 58.4166 107.289 44.8099C120.299 31.2032 137.248 22.0179 155.752 18.5463C174.255 15.0747 193.381 17.4915 210.439 25.4567C227.497 33.4218 241.628 46.5345 250.845 62.9499C267.75 57.0981 286.015 56.4142 303.31 60.9856C320.605 65.557 336.146 75.1764 347.952 88.6169C359.757 102.057 367.292 118.71 369.594 136.45C371.896 154.19 368.862 172.214 360.879 188.223C356.194 202.688 347.047 215.296 334.751 224.239C322.455 233.182 307.641 238 292.437 238H280.345Z" fill="url(#paint0_linear_113_14)"/>
<path d="M292.437 237C300.157 237 307.748 235.767 314.998 233.336C322.009 230.985 328.59 227.554 334.56 223.139C340.462 218.775 345.635 213.547 349.936 207.6C354.29 201.58 357.652 194.957 359.928 187.915L359.951 187.843L359.985 187.775C363.011 181.728 365.341 175.33 366.911 168.761C368.526 162 369.345 155.015 369.345 147.999C369.345 141.96 368.737 135.925 367.537 130.062C366.368 124.348 364.623 118.728 362.352 113.357C360.121 108.084 357.361 102.997 354.146 98.2396C350.962 93.5267 347.306 89.0949 343.278 85.0672C339.25 81.0395 334.819 77.3828 330.106 74.1988C325.348 70.9845 320.262 68.2237 314.988 65.9932C309.617 63.7216 303.997 61.9769 298.283 60.8077C292.42 59.6079 286.385 58.9995 280.345 58.9995C270.346 58.9995 260.531 60.6452 251.172 63.8908L250.383 64.1646L249.973 63.4362C242.357 49.8943 231.279 38.5217 217.937 30.5479C211.189 26.5153 203.94 23.399 196.391 21.2857C188.602 19.1055 180.512 18 172.345 18C161.361 18 150.638 19.977 140.475 23.876C130.657 27.6427 121.65 33.0837 113.705 40.048C105.806 46.9722 99.2507 55.1422 94.2214 64.3308C89.0685 73.7451 85.7006 83.9073 84.2113 94.5349L84.0999 95.3304L83.299 95.3931C74.3408 96.0943 65.7219 98.4529 57.6818 102.403C49.8694 106.242 42.8932 111.434 36.947 117.834C24.7289 130.987 18 148.123 18 166.087C18 175.66 19.8748 184.947 23.5723 193.689C25.3495 197.891 27.5492 201.943 30.1103 205.734C32.6472 209.489 35.5608 213.02 38.7699 216.23C41.9791 219.439 45.5104 222.352 49.2655 224.889C53.0565 227.45 57.109 229.65 61.3107 231.427C70.0525 235.125 79.3392 237 88.9127 237H280.345H292.437ZM292.437 238H280.345H88.9127C49.1966 238 17 205.803 17 166.087C17 128.286 46.1647 97.2967 83.221 94.3961C89.3504 50.6574 126.917 17 172.345 17C206.048 17 235.422 35.5232 250.845 62.946C260.087 59.7407 270.012 57.9995 280.345 57.9995C330.052 57.9995 370.345 98.2943 370.345 147.999C370.345 162.456 366.936 176.118 360.879 188.223C351.544 217.108 324.431 238 292.437 238Z" fill="white" fill-opacity="0.5"/>
</g>
</g>
<defs>
<filter id="filter0_d_113_14" x="-2.99997" y="-11" width="413.345" height="281" filterUnits="userSpaceOnUse" color-interpolation-filters="sRGB">
<feFlood flood-opacity="0" result="BackgroundImageFix"/>
<feColorMatrix in="SourceAlpha" type="matrix" values="0 0 0 0 0 0 0 0 0 0 0 0 0 0 0 0 0 0 127 0" result="hardAlpha"/>
<feOffset dx="10" dy="2"/>
<feGaussianBlur stdDeviation="15"/>
<feColorMatrix type="matrix" values="0 0 0 0 0.258824 0 0 0 0 0.627451 0 0 0 0 0.941176 0 0 0 0.596 0"/>
<feBlend mode="normal" in2="BackgroundImageFix" result="effect1_dropShadow_113_14"/>
<feBlend mode="normal" in="SourceGraphic" in2="effect1_dropShadow_113_14" result="shape"/>
</filter>
<linearGradient id="paint0_linear_113_14" x1="193.698" y1="17.0024" x2="296.341" y2="265.166" gradientUnits="userSpaceOnUse">
<stop stop-color="white" stop-opacity="0.604"/>
<stop offset="1" stop-color="white" stop-opacity="0.2"/>
</linearGradient>
<clipPath id="clip0_113_14">
<rect width="403" height="310" fill="white"/>
</clipPath>
</defs>
</svg>
