<svg viewBox="0 0 401 310" fill="none" xmlns="http://www.w3.org/2000/svg">
<g clip-path="url(#clip0_112_6)">
<path d="M102.701 181.357C103.332 181.375 109.736 206.605 109.736 216.409C109.736 226.213 106.586 234.162 102.701 234.162C98.816 234.162 95.666 226.214 95.666 216.41C95.666 206.606 102.066 181.34 102.701 181.357Z" fill="#42A0F0"/>
<path d="M101.628 210.779C102.656 211.136 102.968 213.356 102.326 215.74C101.684 218.123 100.33 219.765 99.3024 219.409C98.2746 219.053 97.9614 216.831 98.6043 214.448C99.2472 212.065 100.599 210.422 101.628 210.779Z" fill="white"/>
<path d="M162.632 181.357C163.263 181.375 169.667 206.605 169.667 216.409C169.667 226.213 166.517 234.162 162.632 234.162C158.747 234.162 155.597 226.214 155.597 216.41C155.597 206.606 161.997 181.34 162.632 181.357Z" fill="#42A0F0"/>
<path d="M161.559 210.779C162.587 211.136 162.899 213.356 162.257 215.74C161.615 218.123 160.261 219.765 159.233 219.409C158.206 219.053 157.892 216.831 158.535 214.448C159.178 212.065 160.53 210.422 161.559 210.779Z" fill="white"/>
<path d="M222.563 181.357C223.194 181.375 229.598 206.605 229.598 216.409C229.598 226.213 226.448 234.162 222.563 234.162C218.678 234.162 215.528 226.214 215.528 216.41C215.528 206.606 221.928 181.34 222.563 181.357Z" fill="#42A0F0"/>
<path d="M221.49 210.779C222.518 211.136 222.83 213.356 222.188 215.74C221.546 218.123 220.192 219.765 219.164 219.409C218.137 219.053 217.824 216.831 218.466 214.448C219.109 212.065 220.462 210.422 221.49 210.779Z" fill="white"/>
<path d="M282.494 178.357C283.125 178.375 289.529 203.605 289.529 213.409C289.529 223.213 286.379 231.162 282.494 231.162C278.609 231.162 275.459 223.214 275.459 213.41C275.459 203.606 281.859 178.34 282.494 178.357Z" fill="#42A0F0"/>
<path d="M281.421 207.779C282.449 208.136 282.761 210.356 282.119 212.74C281.477 215.123 280.123 216.765 279.095 216.409C278.068 216.053 277.754 213.831 278.397 211.448C279.04 209.065 280.392 207.422 281.421 207.779Z" fill="white"/>
<path d="M190.834 248.357C191.465 248.375 197.869 273.605 197.869 283.409C197.869 293.213 194.719 301.162 190.834 301.162C186.949 301.162 183.799 293.214 183.799 283.41C183.799 273.606 190.199 248.34 190.834 248.357Z" fill="#42A0F0"/>
<path d="M189.761 277.779C190.789 278.136 191.101 280.356 190.459 282.74C189.817 285.123 188.463 286.765 187.435 286.409C186.408 286.053 186.094 283.831 186.737 281.448C187.38 279.065 188.733 277.422 189.761 277.779Z" fill="white"/>
<path d="M250.765 248.357C251.396 248.375 257.8 273.605 257.8 283.409C257.8 293.213 254.65 301.162 250.765 301.162C246.88 301.162 243.73 293.214 243.73 283.41C243.73 273.606 250.13 248.34 250.765 248.357Z" fill="#42A0F0"/>
<path d="M249.692 277.779C250.72 278.136 251.032 280.356 250.39 282.74C249.748 285.123 248.394 286.765 247.366 286.409C246.339 286.053 246.025 283.831 246.668 281.448C247.311 279.065 248.663 277.422 249.692 277.779Z" fill="white"/>
<path d="M314.222 248.357C314.853 248.375 321.257 273.605 321.257 283.409C321.257 293.213 318.107 301.162 314.222 301.162C310.337 301.162 307.187 293.214 307.187 283.41C307.187 273.606 313.587 248.34 314.222 248.357Z" fill="#42A0F0"/>
<path d="M313.149 277.779C314.177 278.136 314.489 280.356 313.847 282.74C313.205 285.123 311.851 286.765 310.823 286.409C309.796 286.053 309.482 283.831 310.125 281.448C310.768 279.065 312.121 277.422 313.149 277.779Z" fill="white"/>
<path d="M130.904 251.357C131.535 251.375 137.939 276.605 137.939 286.409C137.939 296.213 134.789 304.162 130.904 304.162C127.019 304.162 123.869 296.214 123.869 286.41C123.869 276.606 130.269 251.34 130.904 251.357Z" fill="#42A0F0"/>
<path d="M129.831 280.779C130.859 281.136 131.171 283.356 130.529 285.74C129.887 288.123 128.533 289.765 127.505 289.409C126.478 289.053 126.164 286.831 126.807 284.448C127.45 282.065 128.802 280.422 129.831 280.779Z" fill="white"/>
<path d="M74.498 248.357C75.129 248.375 81.533 273.605 81.533 283.409C81.533 293.213 78.383 301.162 74.498 301.162C70.613 301.162 67.463 293.214 67.463 283.41C67.463 273.606 73.863 248.34 74.498 248.357Z" fill="#42A0F0"/>
<path d="M73.4252 277.779C74.4527 278.136 74.7652 280.356 74.1233 282.74C73.4814 285.123 72.1272 286.765 71.0994 286.409C70.0716 286.053 69.7584 283.831 70.4013 281.448C71.0442 279.065 72.3964 277.422 73.4252 277.779Z" fill="white"/>
<g filter="url(#filter0_d_112_6)">
<path d="M281.345 241H89.913C71.3426 240.986 53.4976 233.789 40.1137 220.915C26.7298 208.041 18.8447 190.489 18.1092 171.933C17.3737 153.377 23.8448 135.256 36.1677 121.364C48.4906 107.471 65.71 98.8839 84.221 97.3999C86.8608 78.7599 95.2781 61.4166 108.289 47.8099C121.299 34.2032 138.248 25.0179 156.752 21.5463C175.255 18.0747 194.381 20.4915 211.439 28.4567C228.497 36.4218 242.628 49.5345 251.845 65.9499C268.75 60.0981 287.015 59.4142 304.31 63.9856C321.605 68.557 337.146 78.1764 348.952 91.6169C360.757 105.057 368.292 121.71 370.594 139.45C372.896 157.19 369.862 175.214 361.879 191.223C357.194 205.688 348.047 218.296 335.751 227.239C323.455 236.182 308.641 241 293.437 241H281.345Z" fill="url(#paint0_linear_112_6)"/>
<path d="M293.437 240C301.157 240 308.748 238.767 315.998 236.336C323.009 233.985 329.59 230.554 335.56 226.139C341.462 221.775 346.635 216.547 350.936 210.6C355.29 204.58 358.652 197.957 360.928 190.915L360.951 190.843L360.985 190.775C364.011 184.728 366.341 178.33 367.911 171.761C369.526 165 370.345 158.015 370.345 150.999C370.345 144.96 369.737 138.925 368.537 133.062C367.368 127.348 365.623 121.728 363.352 116.357C361.121 111.084 358.361 105.997 355.146 101.24C351.962 96.5267 348.306 92.0949 344.278 88.0672C340.25 84.0395 335.819 80.3828 331.106 77.1988C326.348 73.9845 321.261 71.2237 315.988 68.9932C310.617 66.7216 304.997 64.9769 299.283 63.8077C293.42 62.6079 287.385 61.9995 281.345 61.9995C271.346 61.9995 261.531 63.6452 252.172 66.8908L251.383 67.1646L250.973 66.4362C243.357 52.8943 232.279 41.5217 218.937 33.5479C212.189 29.5153 204.94 26.399 197.391 24.2857C189.602 22.1055 181.512 21 173.345 21C162.361 21 151.638 22.977 141.475 26.876C131.657 30.6427 122.65 36.0837 114.705 43.048C106.806 49.9722 100.251 58.1422 95.2213 67.3308C90.0685 76.7451 86.7006 86.9073 85.2113 97.5349L85.0998 98.3304L84.299 98.3931C75.3408 99.0943 66.7219 101.453 58.6818 105.403C50.8694 109.242 43.8932 114.434 37.947 120.834C25.7289 133.987 19 151.123 19 169.087C19 178.66 20.8748 187.947 24.5723 196.689C26.3495 200.891 28.5491 204.943 31.1102 208.734C33.6472 212.489 36.5607 216.02 39.7699 219.23C42.9791 222.439 46.5104 225.352 50.2655 227.889C54.0565 230.45 58.109 232.65 62.3106 234.427C71.0525 238.125 80.3391 240 89.9127 240H281.345H293.437ZM293.437 241H281.345H89.9127C50.1966 241 18 208.803 18 169.087C18 131.286 47.1646 100.297 84.221 97.3961C90.3504 53.6574 127.917 20 173.345 20C207.048 20 236.422 38.5232 251.845 65.946C261.087 62.7407 271.012 60.9995 281.345 60.9995C331.051 60.9995 371.345 101.294 371.345 150.999C371.345 165.456 367.936 179.118 361.879 191.223C352.544 220.108 325.431 241 293.437 241Z" fill="white" fill-opacity="0.5"/>
</g>
</g>
<defs>
<filter id="filter0_d_112_6" x="-2" y="-8" width="413.345" height="281" filterUnits="userSpaceOnUse" color-interpolation-filters="sRGB">
<feFlood flood-opacity="0" result="BackgroundImageFix"/>
<feColorMatrix in="SourceAlpha" type="matrix" values="0 0 0 0 0 0 0 0 0 0 0 0 0 0 0 0 0 0 127 0" result="hardAlpha"/>
<feOffset dx="10" dy="2"/>
<feGaussianBlur stdDeviation="15"/>
<feColorMatrix type="matrix" values="0 0 0 0 0.258824 0 0 0 0 0.627451 0 0 0 0 0.941176 0 0 0 0.596 0"/>
<feBlend mode="normal" in2="BackgroundImageFix" result="effect1_dropShadow_112_6"/>
<feBlend mode="normal" in="SourceGraphic" in2="effect1_dropShadow_112_6" result="shape"/>
</filter>
<linearGradient id="paint0_linear_112_6" x1="194.698" y1="20.0024" x2="297.341" y2="268.166" gradientUnits="userSpaceOnUse">
<stop stop-color="white" stop-opacity="0.604"/>
<stop offset="1" stop-color="white" stop-opacity="0.2"/>
</linearGradient>
<clipPath id="clip0_112_6">
<rect width="401" height="310" fill="white"/>
</clipPath>
</defs>
</svg>
