<svg viewBox="0 0 408 303" fill="none" xmlns="http://www.w3.org/2000/svg">
<g clip-path="url(#clip0_113_15)">
<path d="M291.8 170.377C291.8 170.377 273.038 187.269 258.374 186.71C239.992 185.993 236.844 171.271 219.81 170.377C201.981 170.554 200.162 185.824 180.837 186.71C163.522 186.504 156.187 170.653 139.683 170.377C123.179 170.101 105.583 186.71 105.583 186.71" stroke="white" stroke-width="20" stroke-linecap="round"/>
<path d="M227.8 224.377C227.8 224.377 209.038 241.269 194.374 240.71C175.992 239.993 172.844 225.271 155.81 224.377C137.981 224.554 136.162 239.824 116.837 240.71C99.522 240.504 92.187 224.653 75.683 224.377C59.179 224.101 41.583 240.71 41.583 240.71" stroke="white" stroke-width="20" stroke-linecap="round"/>
<path d="M325.8 270.377C325.8 270.377 307.038 287.269 292.374 286.71C273.992 285.993 270.844 271.271 253.81 270.377C235.981 270.554 234.162 285.824 214.837 286.71C197.522 286.504 190.187 270.653 173.683 270.377C157.179 270.101 139.583 286.71 139.583 286.71" stroke="white" stroke-width="20" stroke-linecap="round"/>
<g filter="url(#filter0_d_113_15)">
<path d="M285.345 240H93.913C75.3426 239.986 57.4976 232.789 44.1137 219.915C30.7298 207.041 22.8447 189.489 22.1092 170.933C21.3737 152.377 27.8448 134.256 40.1677 120.364C52.4906 106.471 69.71 97.8839 88.221 96.3999C90.8608 77.7599 99.2781 60.4166 112.289 46.8099C125.299 33.2032 142.248 24.0179 160.752 20.5463C179.255 17.0747 198.381 19.4915 215.439 27.4567C232.497 35.4218 246.628 48.5345 255.845 64.9499C272.75 59.098 291.015 58.4142 308.311 62.9859C325.606 67.5576 341.148 77.1775 352.953 90.6186C364.759 104.06 372.293 120.713 374.594 138.453C376.896 156.194 373.861 174.218 365.877 190.227C361.192 204.69 352.045 217.298 339.749 226.24C327.453 235.182 312.641 239.999 297.437 240H285.345Z" fill="url(#paint0_linear_113_15)"/>
<path d="M297.437 239C305.156 239 312.746 237.767 319.996 235.336C327.006 232.985 333.587 229.555 339.557 225.14C345.458 220.776 350.631 215.548 354.932 209.602C359.287 203.582 362.649 196.96 364.925 189.919L364.949 189.847L364.983 189.779C368.01 183.731 370.341 177.333 371.911 170.763C373.526 164.003 374.345 157.017 374.345 149.999C374.345 143.96 373.737 137.925 372.537 132.062C371.368 126.348 369.623 120.728 367.352 115.357C365.121 110.084 362.36 104.997 359.146 100.24C355.962 95.5267 352.305 91.0949 348.278 87.0672C344.25 83.0395 339.818 79.3828 335.105 76.1988C330.347 72.9845 325.261 70.2237 319.988 67.9932C314.617 65.7216 308.997 63.9769 303.283 62.8077C297.42 61.6079 291.384 60.9995 285.345 60.9995C275.346 60.9995 265.531 62.6451 256.172 65.8907L255.383 66.1645L254.973 65.4361C247.357 51.8942 236.279 40.5216 222.937 32.5478C216.189 28.5152 208.94 25.399 201.391 23.2857C193.602 21.1055 185.512 20 177.345 20C166.361 20 155.638 21.977 145.475 25.876C135.657 29.6427 126.65 35.0837 118.705 42.048C110.806 48.9722 104.251 57.1422 99.2213 66.3308C94.0685 75.7451 90.7006 85.9073 89.2113 96.5349L89.0998 97.3304L88.299 97.3931C79.3408 98.0943 70.7219 100.453 62.6818 104.403C54.8694 108.242 47.8932 113.434 41.947 119.834C29.7289 132.987 23 150.123 23 168.087C23 177.66 24.8748 186.947 28.5723 195.689C30.3495 199.891 32.5491 203.943 35.1102 207.734C37.6472 211.489 40.5607 215.02 43.7699 218.23C46.9791 221.439 50.5104 224.352 54.2655 226.889C58.0565 229.45 62.109 231.65 66.3106 233.427C75.0525 237.125 84.3391 239 93.9127 239H285.345H297.437ZM297.437 240H285.345H93.9127C54.1966 240 22 207.803 22 168.087C22 130.286 51.1646 99.2967 88.221 96.3961C94.3504 52.6574 131.917 19 177.345 19C211.048 19 240.422 37.5231 255.845 64.9459C265.087 61.7406 275.012 59.9995 285.345 59.9995C335.051 59.9995 375.345 100.294 375.345 149.999C375.345 164.459 371.936 178.121 365.877 190.227C356.54 219.109 329.427 240 297.437 240Z" fill="white" fill-opacity="0.5"/>
</g>
</g>
<defs>
<filter id="filter0_d_113_15" x="2" y="-9" width="413.345" height="281" filterUnits="userSpaceOnUse" color-interpolation-filters="sRGB">
<feFlood flood-opacity="0" result="BackgroundImageFix"/>
<feColorMatrix in="SourceAlpha" type="matrix" values="0 0 0 0 0 0 0 0 0 0 0 0 0 0 0 0 0 0 127 0" result="hardAlpha"/>
<feOffset dx="10" dy="2"/>
<feGaussianBlur stdDeviation="15"/>
<feColorMatrix type="matrix" values="0 0 0 0 0.258824 0 0 0 0 0.627451 0 0 0 0 0.941176 0 0 0 0.596 0"/>
<feBlend mode="normal" in2="BackgroundImageFix" result="effect1_dropShadow_113_15"/>
<feBlend mode="normal" in="SourceGraphic" in2="effect1_dropShadow_113_15" result="shape"/>
</filter>
<linearGradient id="paint0_linear_113_15" x1="198.698" y1="19.0024" x2="301.341" y2="267.166" gradientUnits="userSpaceOnUse">
<stop stop-color="white" stop-opacity="0.604"/>
<stop offset="1" stop-color="white" stop-opacity="0.2"/>
</linearGradient>
<clipPath id="clip0_113_15">
<rect width="408" height="303" fill="white"/>
</clipPath>
</defs>
</svg>
