<svg width="68" height="79" viewBox="0 0 68 79" fill="none" xmlns="http://www.w3.org/2000/svg">
<path d="M11.2925 49.5209V78.8839H73.8305V49.5209H11.2925ZM16.856 61.4206H12.7864V56.8874C12.7864 55.7541 13.7136 54.8269 14.8469 54.8269C15.9802 54.8269 16.9075 55.7541 16.9075 56.8874L16.856 61.4206ZM61.6217 56.9904C61.6217 55.9086 62.4459 55.0329 63.5277 54.9299C63.5792 54.9299 63.6307 54.9299 63.6822 54.9299C64.8156 54.9299 65.7428 55.8571 65.7428 56.9904V61.4206V61.4722H61.6732L61.6217 56.9904ZM55.4915 56.9904C55.4915 55.8571 56.3673 54.9814 57.5006 54.9299H57.5521C58.6854 54.9299 59.6126 55.8571 59.5611 56.9904V61.4206V61.4722H55.4915V56.9904ZM49.4129 56.9904C49.4129 55.8571 50.3401 54.9299 51.4734 54.9299H51.5249C52.6067 54.9814 53.4824 55.8571 53.4824 56.9904V61.4722H49.4129V56.9904ZM43.2827 56.9389C43.2827 55.8056 44.2099 54.8784 45.3432 54.8784C45.3948 54.8784 45.4978 54.8784 45.5493 54.8784C46.5796 54.9814 47.4038 55.8571 47.4038 56.9389V61.4722H43.3342L43.2827 56.9389ZM37.204 56.9389C37.204 55.8056 38.1313 54.8784 39.2646 54.8784C39.3676 54.8784 39.4706 54.8784 39.5737 54.9299C40.5524 55.0844 41.3252 55.9086 41.2736 56.9389V61.4722H37.204V56.9389ZM31.0738 56.9389C31.0738 55.8056 32.0011 54.8784 33.1344 54.8784C33.2889 54.8784 33.4435 54.8784 33.598 54.9299C34.5253 55.1359 35.195 55.9602 35.195 56.9389V61.4722H31.6405H31.0738V56.9389ZM24.9952 56.8874C24.9952 55.7541 25.9225 54.8269 27.0558 54.8269C27.2618 54.8269 27.4679 54.8784 27.6224 54.9299C28.4467 55.1874 29.0648 55.9602 29.0648 56.8874V61.4206H25.5619H24.9952V56.8874ZM18.865 56.8874C18.865 55.7541 19.7923 54.8269 20.9256 54.8269C21.1832 54.8269 21.3892 54.8784 21.5953 54.9299C22.368 55.1874 22.9346 55.9602 22.9346 56.8874V61.4206H19.3802H18.8135L18.865 56.8874ZM18.865 69.4053C18.865 68.272 19.7923 67.3448 20.9256 67.3448C21.1832 67.3448 21.3892 67.3963 21.5953 67.4478C22.368 67.7054 22.9862 68.4781 22.9862 69.4053V73.9385H19.5347H18.9165L18.865 69.4053ZM24.9437 69.4053C24.9437 68.272 25.8709 67.3448 27.0043 67.3448C27.2103 67.3448 27.4164 67.3963 27.5709 67.4478C28.4466 67.7054 29.0648 68.4781 29.0648 69.4053V73.9385H25.6134H24.9952L24.9437 69.4053ZM31.0738 69.4568C31.0738 68.3235 32.0011 67.3963 33.1344 67.4478C33.2889 67.4478 33.4435 67.4478 33.598 67.4993C34.5253 67.7054 35.195 68.5296 35.195 69.5084V74.0416H31.7436H31.0223L31.0738 69.4568ZM37.7707 74.0416H37.1525V69.5084C37.1525 68.375 38.0798 67.4478 39.2131 67.4993C39.3161 67.4993 39.4191 67.4993 39.5737 67.5508C40.5524 67.7054 41.2736 68.5811 41.2736 69.5599V74.0931L37.7707 74.0416ZM47.3523 74.0416H43.2827V69.5084C43.2827 68.375 44.2099 67.4478 45.3432 67.4478C45.4463 67.4478 45.4978 67.4478 45.6008 67.4478C46.6311 67.5508 47.4038 68.4266 47.4038 69.5084L47.3523 74.0416ZM53.4309 74.0416H49.3613V69.5084C49.3613 68.375 50.2886 67.4478 51.4219 67.4478C51.4734 67.4478 51.5249 67.4478 51.5249 67.4478C52.6067 67.4993 53.4309 68.4266 53.4309 69.5084V74.0416ZM59.5611 74.0416H55.4915V69.5084C55.4915 68.375 56.4188 67.4478 57.5521 67.4478C58.6854 67.4478 59.5611 68.375 59.5611 69.5084V74.0416ZM65.6398 74.0416H61.5702V69.5599C61.5702 68.4781 62.4459 67.5508 63.5277 67.5508C63.5792 67.5508 63.5792 67.5508 63.6307 67.5508C64.764 67.5508 65.6913 68.4781 65.6913 69.6114V74.0416H65.6398ZM71.7699 74.0416H67.7003V69.5599C67.7003 68.4265 68.6276 67.4993 69.7609 67.5508C70.3276 67.5508 70.8427 67.7569 71.2033 68.169C71.5639 68.5296 71.8215 69.0447 71.8215 69.6114L71.7699 74.0416ZM71.8215 61.4722H67.7518V56.9904C67.7518 55.9602 68.5246 55.0844 69.5033 54.9814C69.6064 54.9814 69.7094 54.9814 69.8124 54.9814C70.9457 54.9814 71.873 55.9086 71.873 57.042V61.4206V61.4722H71.8215Z" fill="url(#paint0_linear_1_373)"/>
<path d="M73.8305 61.472H11.2925V63.9962H73.8305V61.472Z" fill="url(#paint1_linear_1_373)"/>
<path d="M73.8305 74.0412H11.2925V76.5654H73.8305V74.0412Z" fill="url(#paint2_linear_1_373)"/>
<path d="M73.8305 49.4692H11.2925V51.9934H73.8305V49.4692Z" fill="url(#paint3_linear_1_373)"/>
<path d="M67.7003 74.0414V74.0929H71.7699V73.9898H67.7003V74.0414ZM61.5702 74.0414V74.0929H65.6398V74.0414H61.5702ZM55.4915 74.0414L59.5611 74.0929V74.0414H55.4915ZM49.3613 74.0414L53.431 74.0929V74.0414H49.3613ZM43.2827 61.4719L47.3523 61.5235V61.4719H43.2827ZM49.4129 61.4719L53.4825 61.5235V61.4719H49.4129ZM55.4915 61.4719V61.5235H59.5611V61.4719H55.4915ZM61.6217 61.4719V61.5235H65.6913V61.4204H61.6217V61.4719ZM67.7003 61.4719V61.575H71.7699V61.4719H67.7003Z" fill="url(#paint4_linear_1_373)"/>
<path d="M9.69543 35.3542H9.953V33.0876H9.69543V35.3542Z" fill="url(#paint5_linear_1_373)"/>
<path d="M1.96826 35.3029H3.35915H4.23489H4.38943H5.47124H5.52274C5.7288 34.7877 6.08939 34.3241 6.44999 33.912C6.75907 33.6029 7.11969 33.2938 7.5318 33.0878C7.84088 32.9332 8.14995 32.7787 8.51055 32.6757C8.81963 32.5726 9.18023 32.5211 9.54083 32.4696C9.64386 32.4696 9.79841 32.4696 9.90143 32.4696C10.1075 32.4696 10.3136 32.4696 10.5196 32.5211C10.8802 32.5726 11.2408 32.6756 11.5499 32.7787C11.9105 32.9332 12.2196 33.0878 12.5286 33.2938C12.9407 33.5514 13.3013 33.912 13.5589 34.2726C13.8165 34.5817 14.0225 34.9938 14.1771 35.3544H14.5377H15.4649H15.6195H16.5983H17.8346L17.8861 29.6878L17.9376 24.0213V23.9698L2.12283 23.8668H2.0713V23.9183L2.01979 29.5848L1.96826 35.3029Z" fill="url(#paint6_linear_1_373)"/>
<path d="M17.7318 45.0905L1.86549 44.9875L1.65942 78.8322L17.5257 78.9352L17.7318 45.0905Z" fill="url(#paint7_linear_1_373)"/>
<path d="M15.6711 24.0727H16.7014L16.2893 78.9352H15.3105L15.6711 24.0727Z" fill="url(#paint8_linear_1_373)"/>
<path d="M13.5591 34.2727C13.8167 34.5818 14.0228 34.9939 14.1773 35.3545C14.3319 35.7666 14.4349 36.1787 14.4864 36.5908V35.3545V33.603L14.5379 29.6879L14.5894 24.0214H13.6107L13.5591 29.6879V32.5727V34.2727Z" fill="url(#paint9_linear_1_373)"/>
<path d="M13.25 78.9353H14.2288L14.4863 45.0906L14.5379 40.8665V37.9302C14.4348 38.8059 14.0742 39.5786 13.5591 40.2483V41.8968V45.0906L13.25 78.9353Z" fill="url(#paint10_linear_1_373)"/>
<path d="M11.55 32.7786C11.9106 32.9331 12.2197 33.0877 12.5288 33.2937V31.9544V29.7393L12.5803 24.0727H11.6016L11.55 29.7393V31.5423V32.7786Z" fill="url(#paint11_linear_1_373)"/>
<path d="M11.241 78.9352H12.2197L12.4773 45.0905V42.5663V41.2269C12.1682 41.433 11.8591 41.5875 11.4985 41.7421V42.9784V45.0905L11.241 78.9352Z" fill="url(#paint12_linear_1_373)"/>
<path d="M9.48944 32.4695C9.59247 32.4695 9.74702 32.4695 9.85005 32.4695C10.0561 32.4695 10.2621 32.4695 10.4682 32.521V31.3362V29.7393L10.5197 24.0727H9.54094L9.48944 29.7393V31.3362V32.4695Z" fill="url(#paint13_linear_1_373)"/>
<path d="M9.43785 37.2604V37.7755C9.54088 37.827 9.64392 37.8785 9.79846 37.8785C10.1591 37.8785 10.4166 37.621 10.4166 37.2604C10.4166 37.2604 10.4166 37.2604 10.4166 37.2088V37.1573C10.4166 36.8482 10.2106 36.6422 9.90149 36.5907V35.3543V33.0877H9.64392V35.3543V36.5907C9.54089 36.5907 9.48938 36.6422 9.38635 36.6937V37.0028L9.43785 37.2604Z" fill="url(#paint14_linear_1_373)"/>
<path d="M9.18042 78.8837H10.1592L10.3653 45.039V43.133V41.9482C10.1592 41.9997 9.95315 41.9997 9.74709 41.9997C9.64406 41.9997 9.48952 41.9997 9.38649 41.9997V43.1845V45.0905L9.18042 78.8837Z" fill="url(#paint15_linear_1_373)"/>
<path d="M7.42883 33.0879C7.73792 32.9333 8.04698 32.7788 8.40758 32.6758V31.4394V29.6879L8.45911 24.0214H7.48033L7.42883 29.6879V31.7485V33.0879Z" fill="url(#paint16_linear_1_373)"/>
<path d="M7.42883 37.2604H8.40758V37.0028H7.42883V37.2604Z" fill="url(#paint17_linear_1_373)"/>
<path d="M7.11981 78.8838H8.09859L8.30466 45.0391V42.9785V41.7421C7.94406 41.6391 7.63496 41.4846 7.32588 41.2785V42.6179V44.9875L7.11981 78.8838Z" fill="url(#paint18_linear_1_373)"/>
<path d="M5.93494 36.9512V37.2094H6.34807V36.9512H5.93494Z" fill="url(#paint19_linear_1_373)"/>
<path d="M5.36841 35.303V35.4575C5.36841 35.406 5.41991 35.3545 5.41991 35.303C5.62597 34.7878 5.98656 34.3242 6.34716 33.9121V32.3667V29.6879L6.39869 24.0214H5.41991L5.36841 29.6879V33.2424V35.303Z" fill="url(#paint20_linear_1_373)"/>
<path d="M5.05933 78.8836H6.03811L6.29568 45.0389V42.0511V40.5056C5.88356 40.042 5.52295 39.5269 5.3169 38.9602V41.1753L5.26539 45.0904L5.05933 78.8836Z" fill="url(#paint21_linear_1_373)"/>
<path d="M3.41092 23.9698H4.38966L4.02906 78.8837H2.99878L3.41092 23.9698Z" fill="url(#paint22_linear_1_373)"/>
<path d="M13.1469 17.0668L6.8622 17.0153L2.0199 23.9697L17.8862 24.0727L13.1469 17.0668Z" fill="url(#paint23_linear_1_373)"/>
<path d="M5.93481 36.9511V37.2086H6.34692H7.42873H8.40748H9.18019C9.18019 37.4147 9.28322 37.6208 9.43776 37.7238C9.54079 37.7753 9.64382 37.8268 9.79837 37.8268C10.159 37.8268 10.4165 37.5692 10.4165 37.2086C10.4165 37.2086 10.4165 37.2086 10.4165 37.1571V37.1056C10.4165 36.7965 10.2105 36.5905 9.9014 36.539V35.3026V33.036H9.64383V35.3026V36.539C9.5408 36.539 9.48929 36.5905 9.38626 36.642C9.28323 36.6935 9.1802 36.848 9.12869 36.9511H8.30448H7.3257H6.24392H5.93481Z" fill="url(#paint24_linear_1_373)"/>
<path d="M0.319946 44.9873H1.86537H3.25622H4.235H5.31678H6.29556H7.37734H8.35612H9.4379H10.4167H11.4985H12.4772H13.559H14.5378H15.5681H16.5469H17.7317H19.3286L19.4316 29.6361H17.8347H16.5984H15.6196H14.5893H13.6106H12.5287H11.55H10.4682H9.48944H8.45916H7.48038H6.39859H5.41982H4.33803H3.35925H1.96837H0.422949L0.319946 44.9873ZM12.4772 41.1752C12.1682 41.3813 11.8591 41.5358 11.4985 41.6904C11.1379 41.7934 10.7773 41.8964 10.4167 41.9479C10.2106 41.9994 10.0046 41.9994 9.79851 41.9994C9.69548 41.9994 9.54093 41.9994 9.4379 41.9994C9.0773 41.9479 8.71671 41.8964 8.40762 41.7934C8.04702 41.6904 7.73796 41.5358 7.42887 41.3298C7.01676 41.1237 6.65615 40.8146 6.34706 40.5055C5.93495 40.0419 5.57437 39.5268 5.36831 38.9601C5.16226 38.445 5.05921 37.8268 5.05921 37.2086C5.05921 36.5905 5.16225 36.0238 5.41982 35.4572C5.41982 35.4057 5.47135 35.3541 5.47135 35.3026C5.6774 34.7875 6.038 34.3239 6.39859 33.9117C6.70768 33.6027 7.06826 33.2936 7.48038 33.0875C7.78946 32.933 8.09856 32.7784 8.45916 32.6754C8.76824 32.5724 9.12884 32.5209 9.48944 32.4693C9.59246 32.4693 9.74701 32.4693 9.85004 32.4693C10.0561 32.4693 10.2621 32.4693 10.4682 32.5209C10.8288 32.5724 11.1894 32.6754 11.4985 32.7784C11.8591 32.933 12.1682 33.0875 12.4772 33.2936C12.8894 33.5511 13.25 33.9117 13.5075 34.2723C13.7651 34.5814 13.9712 34.9935 14.1257 35.3541C14.2802 35.7662 14.3833 36.1784 14.4348 36.5905V37.8783C14.3317 38.7541 13.9712 39.5268 13.456 40.1964C13.25 40.6086 12.8894 40.9177 12.4772 41.1752Z" fill="url(#paint25_linear_1_373)"/>
<path d="M6.86212 13.0489L13.1984 13.1004L13.1468 17.067L6.86212 17.0155V13.0489Z" fill="url(#paint26_linear_1_373)"/>
<path d="M10.0045 0.530777L11.0348 13.1002H8.6651L10.0045 0.530777Z" fill="url(#paint27_linear_1_373)"/>
<path d="M5.93481 36.9509V37.2085H6.34692H7.42873H8.40748H9.18019C9.18019 37.4146 9.28322 37.6206 9.43776 37.7237C9.54079 37.7752 9.64382 37.8267 9.79837 37.8267C10.159 37.8267 10.4165 37.5691 10.4165 37.2085C10.4165 37.2085 10.4165 37.2085 10.4165 37.157V37.1055C10.4165 36.7964 10.2105 36.5904 9.9014 36.5388V35.3025V33.0359H9.64383V35.3025V36.5388C9.5408 36.5388 9.48929 36.5903 9.38626 36.6419C9.28323 36.6934 9.1802 36.8479 9.12869 36.9509H8.30448H7.3257H6.24392H5.93481Z" fill="url(#paint28_linear_1_373)"/>
<path d="M3.87427 37.1572C3.87427 37.9814 4.0288 38.7026 4.28637 39.4238C4.54394 40.042 4.90454 40.6087 5.31665 41.1238C5.62574 41.4844 5.93483 41.742 6.29543 42.0511C6.60452 42.3086 6.96511 42.5147 7.32571 42.6692C7.6348 42.8238 7.99541 42.9268 8.30449 43.0298C8.66509 43.1328 9.02568 43.1844 9.38627 43.1844C9.4893 43.1844 9.64385 43.1844 9.74688 43.1844C9.95293 43.1844 10.159 43.1844 10.3651 43.1329C10.7257 43.0813 11.0862 43.0298 11.4468 42.9268C11.8074 42.8238 12.1165 42.6692 12.4256 42.5147C12.7862 42.3086 13.1468 42.1026 13.5074 41.845C13.868 41.5359 14.2286 41.2268 14.4862 40.8147C15.0013 40.1966 15.3619 39.4238 15.568 38.6511C15.671 38.1875 15.7225 37.7239 15.7225 37.2603C15.7225 36.7966 15.671 36.333 15.568 35.8694C15.5164 35.7148 15.4649 35.5603 15.4649 35.4057C15.2589 34.7876 14.9498 34.1694 14.5377 33.6543C14.2286 33.2937 13.9195 32.9331 13.5589 32.624C13.2498 32.3664 12.8892 32.1089 12.5286 31.9028C12.2195 31.7483 11.9105 31.5937 11.5499 31.4907C11.1893 31.3877 10.8287 31.2846 10.4681 31.2846C10.262 31.2846 10.056 31.2331 9.84991 31.2331C9.74688 31.2331 9.59234 31.2331 9.48931 31.2331C9.12871 31.2331 8.76811 31.2846 8.45903 31.3877C8.14994 31.4907 7.78933 31.5937 7.48025 31.6967C7.11965 31.8513 6.75907 32.0573 6.39847 32.3149C6.03787 32.5725 5.67726 32.8816 5.41969 33.1907C4.95606 33.7058 4.59548 34.2724 4.33791 34.8906C4.28639 34.9936 4.23488 35.1482 4.18337 35.2512C3.97731 35.8694 3.87427 36.5391 3.87427 37.1572ZM5.00758 37.1572C5.00758 36.5391 5.11062 35.9724 5.36819 35.4057C5.36819 35.3542 5.41969 35.3027 5.41969 35.2512C5.62574 34.7361 5.98634 34.2724 6.34693 33.8603C6.65602 33.5512 7.01664 33.2422 7.42875 33.0361C7.73783 32.8816 8.0469 32.727 8.4075 32.624C8.71658 32.521 9.07718 32.4695 9.43778 32.4179C9.5408 32.4179 9.69535 32.4179 9.79838 32.4179C10.0044 32.4179 10.2105 32.4179 10.4166 32.4694C10.7772 32.521 11.1378 32.624 11.4468 32.727C11.8074 32.8816 12.1165 33.0361 12.4256 33.2422C12.8377 33.4997 13.1983 33.8603 13.4559 34.2209C13.7135 34.53 13.9195 34.9421 14.074 35.3027C14.2286 35.7148 14.3316 36.127 14.3831 36.5391V37.8269C14.2801 38.7027 13.9195 39.4754 13.4044 40.145C13.0953 40.5056 12.7347 40.8662 12.3226 41.1238C12.0135 41.3299 11.7044 41.4844 11.3438 41.6389C10.9832 41.742 10.6226 41.845 10.262 41.8965C10.056 41.948 9.8499 41.948 9.64384 41.948C9.54082 41.948 9.38627 41.948 9.28324 41.948C8.92264 41.8965 8.56204 41.845 8.25296 41.742C7.89236 41.6389 7.5833 41.4844 7.27421 41.2783C6.8621 41.0723 6.50148 40.7632 6.1924 40.4541C5.78029 39.9905 5.41971 39.4753 5.21365 38.9087C5.16214 38.3936 5.00758 37.7754 5.00758 37.1572Z" fill="url(#paint29_linear_1_373)"/>
<path d="M14.5377 37.93C14.5892 37.724 14.5892 37.5179 14.5892 37.2604C14.5892 37.0543 14.5892 36.8482 14.5377 36.6422V37.93Z" fill="url(#paint30_linear_1_373)"/>
<path d="M5.93481 36.9509V37.2085H6.34692H7.42873H8.40748H9.18019C9.18019 37.4146 9.28322 37.6206 9.43776 37.7237C9.54079 37.7752 9.64382 37.8267 9.79837 37.8267C10.159 37.8267 10.4165 37.5691 10.4165 37.2085C10.4165 37.2085 10.4165 37.2085 10.4165 37.157V37.1055C10.4165 36.7964 10.2105 36.5904 9.9014 36.5388V35.3025V33.0359H9.64383V35.3025V36.5388C9.5408 36.5388 9.48929 36.5903 9.38626 36.6419C9.28323 36.6934 9.1802 36.8479 9.12869 36.9509H8.30448H7.3257H6.24392H5.93481Z" fill="url(#paint31_linear_1_373)"/>
<path d="M9.18016 37.2087C9.18016 37.4662 9.28319 37.6208 9.43773 37.7238C9.54076 37.7753 9.6438 37.8269 9.79834 37.8269C10.1589 37.8269 10.4165 37.5693 10.4165 37.2087C10.4165 37.2087 10.4165 37.2087 10.4165 37.1572V37.1056C10.4165 36.7966 10.2105 36.5905 9.90137 36.539C9.84986 36.539 9.79835 36.539 9.74684 36.539C9.69532 36.539 9.6438 36.539 9.6438 36.539C9.54077 36.539 9.48926 36.5905 9.38623 36.642C9.2832 36.6935 9.18018 36.8481 9.12866 36.9511C9.18018 37.0541 9.18016 37.1572 9.18016 37.2087Z" fill="url(#paint32_linear_1_373)"/>
<path d="M9.69543 37.0025H9.9015H9.953V36.5904V35.3541V33.0875H9.69543V35.3541V36.5904V37.0025Z" fill="url(#paint33_linear_1_373)"/>
<path d="M5.93481 36.951V37.2085H6.34692L7.42873 37.2601H8.40748H9.18019H9.43776H9.9014V37.0025H9.69533H9.43776H9.23172H8.40748H7.42873L6.34692 36.951H5.93481Z" fill="url(#paint34_linear_1_373)"/>
<defs>
<linearGradient id="paint0_linear_1_373" x1="42.5615" y1="78.853" x2="42.5615" y2="49.4951" gradientUnits="userSpaceOnUse">
<stop stop-color="white"/>
<stop offset="0.4198" stop-color="#FCFCFC"/>
<stop offset="0.6878" stop-color="#F4F4F4"/>
<stop offset="0.9127" stop-color="#E5E5E5"/>
<stop offset="1" stop-color="#DDDDDD"/>
</linearGradient>
<linearGradient id="paint1_linear_1_373" x1="42.5608" y1="63.9844" x2="42.5608" y2="61.4809" gradientUnits="userSpaceOnUse">
<stop stop-color="white"/>
<stop offset="0.4198" stop-color="#FCFCFC"/>
<stop offset="0.6878" stop-color="#F4F4F4"/>
<stop offset="0.9127" stop-color="#E5E5E5"/>
<stop offset="1" stop-color="#DDDDDD"/>
</linearGradient>
<linearGradient id="paint2_linear_1_373" x1="42.5608" y1="76.5279" x2="42.5608" y2="74.0243" gradientUnits="userSpaceOnUse">
<stop stop-color="white"/>
<stop offset="0.4198" stop-color="#FCFCFC"/>
<stop offset="0.6878" stop-color="#F4F4F4"/>
<stop offset="0.9127" stop-color="#E5E5E5"/>
<stop offset="1" stop-color="#DDDDDD"/>
</linearGradient>
<linearGradient id="paint3_linear_1_373" x1="42.5596" y1="51.9992" x2="42.5596" y2="49.493" gradientUnits="userSpaceOnUse">
<stop stop-color="white"/>
<stop offset="0.4198" stop-color="#FCFCFC"/>
<stop offset="0.6878" stop-color="#F4F4F4"/>
<stop offset="0.9127" stop-color="#E5E5E5"/>
<stop offset="1" stop-color="#DDDDDD"/>
</linearGradient>
<linearGradient id="paint4_linear_1_373" x1="54.4966" y1="74.1069" x2="54.4966" y2="61.4808" gradientUnits="userSpaceOnUse">
<stop stop-color="white"/>
<stop offset="0.4198" stop-color="#FCFCFC"/>
<stop offset="0.6878" stop-color="#F4F4F4"/>
<stop offset="0.9127" stop-color="#E5E5E5"/>
<stop offset="1" stop-color="#DDDDDD"/>
</linearGradient>
<linearGradient id="paint5_linear_1_373" x1="9.83493" y1="35.3373" x2="9.83493" y2="33.0707" gradientUnits="userSpaceOnUse">
<stop stop-color="white"/>
<stop offset="0.4198" stop-color="#FCFCFC"/>
<stop offset="0.6878" stop-color="#F4F4F4"/>
<stop offset="0.9127" stop-color="#E5E5E5"/>
<stop offset="1" stop-color="#DDDDDD"/>
</linearGradient>
<linearGradient id="paint6_linear_1_373" x1="9.91724" y1="35.389" x2="9.91724" y2="23.9426" gradientUnits="userSpaceOnUse">
<stop stop-color="white"/>
<stop offset="0.4198" stop-color="#FCFCFC"/>
<stop offset="0.6878" stop-color="#F4F4F4"/>
<stop offset="0.9127" stop-color="#E5E5E5"/>
<stop offset="1" stop-color="#DDDDDD"/>
</linearGradient>
<linearGradient id="paint7_linear_1_373" x1="9.69464" y1="78.961" x2="9.69464" y2="44.9961" gradientUnits="userSpaceOnUse">
<stop stop-color="white"/>
<stop offset="0.4198" stop-color="#FCFCFC"/>
<stop offset="0.6878" stop-color="#F4F4F4"/>
<stop offset="0.9127" stop-color="#E5E5E5"/>
<stop offset="1" stop-color="#DDDDDD"/>
</linearGradient>
<linearGradient id="paint8_linear_1_373" x1="15.9976" y1="78.9526" x2="15.9976" y2="24.0597" gradientUnits="userSpaceOnUse">
<stop stop-color="white"/>
<stop offset="0.4198" stop-color="#FCFCFC"/>
<stop offset="0.6878" stop-color="#F4F4F4"/>
<stop offset="0.9127" stop-color="#E5E5E5"/>
<stop offset="1" stop-color="#DDDDDD"/>
</linearGradient>
<linearGradient id="paint9_linear_1_373" x1="14.103" y1="36.6203" x2="14.103" y2="24.0457" gradientUnits="userSpaceOnUse">
<stop stop-color="white"/>
<stop offset="0.4198" stop-color="#FCFCFC"/>
<stop offset="0.6878" stop-color="#F4F4F4"/>
<stop offset="0.9127" stop-color="#E5E5E5"/>
<stop offset="1" stop-color="#DDDDDD"/>
</linearGradient>
<linearGradient id="paint10_linear_1_373" x1="13.9046" y1="78.939" x2="13.9046" y2="37.9133" gradientUnits="userSpaceOnUse">
<stop stop-color="white"/>
<stop offset="0.4198" stop-color="#FCFCFC"/>
<stop offset="0.6878" stop-color="#F4F4F4"/>
<stop offset="0.9127" stop-color="#E5E5E5"/>
<stop offset="1" stop-color="#DDDDDD"/>
</linearGradient>
<linearGradient id="paint11_linear_1_373" x1="12.0578" y1="33.2768" x2="12.0578" y2="24.0301" gradientUnits="userSpaceOnUse">
<stop stop-color="white"/>
<stop offset="0.4198" stop-color="#FCFCFC"/>
<stop offset="0.6878" stop-color="#F4F4F4"/>
<stop offset="0.9127" stop-color="#E5E5E5"/>
<stop offset="1" stop-color="#DDDDDD"/>
</linearGradient>
<linearGradient id="paint12_linear_1_373" x1="11.8414" y1="78.9234" x2="11.8414" y2="41.1894" gradientUnits="userSpaceOnUse">
<stop stop-color="white"/>
<stop offset="0.4198" stop-color="#FCFCFC"/>
<stop offset="0.6878" stop-color="#F4F4F4"/>
<stop offset="0.9127" stop-color="#E5E5E5"/>
<stop offset="1" stop-color="#DDDDDD"/>
</linearGradient>
<linearGradient id="paint13_linear_1_373" x1="10.0101" y1="32.4835" x2="10.0101" y2="24.0198" gradientUnits="userSpaceOnUse">
<stop stop-color="white"/>
<stop offset="0.4198" stop-color="#FCFCFC"/>
<stop offset="0.6878" stop-color="#F4F4F4"/>
<stop offset="0.9127" stop-color="#E5E5E5"/>
<stop offset="1" stop-color="#DDDDDD"/>
</linearGradient>
<linearGradient id="paint14_linear_1_373" x1="9.94822" y1="37.8514" x2="9.94822" y2="33.0708" gradientUnits="userSpaceOnUse">
<stop stop-color="white"/>
<stop offset="0.4198" stop-color="#FCFCFC"/>
<stop offset="0.6878" stop-color="#F4F4F4"/>
<stop offset="0.9127" stop-color="#E5E5E5"/>
<stop offset="1" stop-color="#DDDDDD"/>
</linearGradient>
<linearGradient id="paint15_linear_1_373" x1="9.78866" y1="78.908" x2="9.78866" y2="41.9519" gradientUnits="userSpaceOnUse">
<stop stop-color="white"/>
<stop offset="0.4198" stop-color="#FCFCFC"/>
<stop offset="0.6878" stop-color="#F4F4F4"/>
<stop offset="0.9127" stop-color="#E5E5E5"/>
<stop offset="1" stop-color="#DDDDDD"/>
</linearGradient>
<linearGradient id="paint16_linear_1_373" x1="7.96236" y1="33.0658" x2="7.96236" y2="24.0045" gradientUnits="userSpaceOnUse">
<stop stop-color="white"/>
<stop offset="0.4198" stop-color="#FCFCFC"/>
<stop offset="0.6878" stop-color="#F4F4F4"/>
<stop offset="0.9127" stop-color="#E5E5E5"/>
<stop offset="1" stop-color="#DDDDDD"/>
</linearGradient>
<linearGradient id="paint17_linear_1_373" x1="7.90311" y1="37.2435" x2="7.90311" y2="36.9808" gradientUnits="userSpaceOnUse">
<stop stop-color="white"/>
<stop offset="0.4198" stop-color="#FCFCFC"/>
<stop offset="0.6878" stop-color="#F4F4F4"/>
<stop offset="0.9127" stop-color="#E5E5E5"/>
<stop offset="1" stop-color="#DDDDDD"/>
</linearGradient>
<linearGradient id="paint18_linear_1_373" x1="7.74356" y1="78.8978" x2="7.74356" y2="41.3286" gradientUnits="userSpaceOnUse">
<stop stop-color="white"/>
<stop offset="0.4198" stop-color="#FCFCFC"/>
<stop offset="0.6878" stop-color="#F4F4F4"/>
<stop offset="0.9127" stop-color="#E5E5E5"/>
<stop offset="1" stop-color="#DDDDDD"/>
</linearGradient>
<linearGradient id="paint19_linear_1_373" x1="6.14961" y1="37.2338" x2="6.14961" y2="36.9704" gradientUnits="userSpaceOnUse">
<stop stop-color="white"/>
<stop offset="0.4198" stop-color="#FCFCFC"/>
<stop offset="0.6878" stop-color="#F4F4F4"/>
<stop offset="0.9127" stop-color="#E5E5E5"/>
<stop offset="1" stop-color="#DDDDDD"/>
</linearGradient>
<linearGradient id="paint20_linear_1_373" x1="5.90451" y1="35.4509" x2="5.90451" y2="23.989" gradientUnits="userSpaceOnUse">
<stop stop-color="white"/>
<stop offset="0.4198" stop-color="#FCFCFC"/>
<stop offset="0.6878" stop-color="#F4F4F4"/>
<stop offset="0.9127" stop-color="#E5E5E5"/>
<stop offset="1" stop-color="#DDDDDD"/>
</linearGradient>
<linearGradient id="paint21_linear_1_373" x1="5.69847" y1="78.8821" x2="5.69847" y2="38.9176" gradientUnits="userSpaceOnUse">
<stop stop-color="white"/>
<stop offset="0.4198" stop-color="#FCFCFC"/>
<stop offset="0.6878" stop-color="#F4F4F4"/>
<stop offset="0.9127" stop-color="#E5E5E5"/>
<stop offset="1" stop-color="#DDDDDD"/>
</linearGradient>
<linearGradient id="paint22_linear_1_373" x1="3.70648" y1="78.8684" x2="3.70648" y2="23.9756" gradientUnits="userSpaceOnUse">
<stop stop-color="white"/>
<stop offset="0.4198" stop-color="#FCFCFC"/>
<stop offset="0.6878" stop-color="#F4F4F4"/>
<stop offset="0.9127" stop-color="#E5E5E5"/>
<stop offset="1" stop-color="#DDDDDD"/>
</linearGradient>
<linearGradient id="paint23_linear_1_373" x1="9.95465" y1="24.0916" x2="9.95465" y2="17.015" gradientUnits="userSpaceOnUse">
<stop stop-color="white"/>
<stop offset="0.4198" stop-color="#FCFCFC"/>
<stop offset="0.6878" stop-color="#F4F4F4"/>
<stop offset="0.9127" stop-color="#E5E5E5"/>
<stop offset="1" stop-color="#DDDDDD"/>
</linearGradient>
<linearGradient id="paint24_linear_1_373" x1="8.19664" y1="37.8512" x2="8.19664" y2="33.0706" gradientUnits="userSpaceOnUse">
<stop stop-color="white"/>
<stop offset="0.4198" stop-color="#FCFCFC"/>
<stop offset="0.6878" stop-color="#F4F4F4"/>
<stop offset="0.9127" stop-color="#E5E5E5"/>
<stop offset="1" stop-color="#DDDDDD"/>
</linearGradient>
<linearGradient id="paint25_linear_1_373" x1="9.88903" y1="45.1146" x2="9.88903" y2="29.6192" gradientUnits="userSpaceOnUse">
<stop stop-color="white"/>
<stop offset="0.4198" stop-color="#FCFCFC"/>
<stop offset="0.6878" stop-color="#F4F4F4"/>
<stop offset="0.9127" stop-color="#E5E5E5"/>
<stop offset="1" stop-color="#DDDDDD"/>
</linearGradient>
<linearGradient id="paint26_linear_1_373" x1="10.0176" y1="17.0584" x2="10.0176" y2="13.034" gradientUnits="userSpaceOnUse">
<stop stop-color="white"/>
<stop offset="0.4198" stop-color="#FCFCFC"/>
<stop offset="0.6878" stop-color="#F4F4F4"/>
<stop offset="0.9127" stop-color="#E5E5E5"/>
<stop offset="1" stop-color="#DDDDDD"/>
</linearGradient>
<linearGradient id="paint27_linear_1_373" x1="9.84859" y1="13.1146" x2="9.84859" y2="0.542626" gradientUnits="userSpaceOnUse">
<stop stop-color="white"/>
<stop offset="0.4198" stop-color="#FCFCFC"/>
<stop offset="0.6878" stop-color="#F4F4F4"/>
<stop offset="0.9127" stop-color="#E5E5E5"/>
<stop offset="1" stop-color="#DDDDDD"/>
</linearGradient>
<linearGradient id="paint28_linear_1_373" x1="8.19664" y1="37.8511" x2="8.19664" y2="33.0705" gradientUnits="userSpaceOnUse">
<stop stop-color="white"/>
<stop offset="0.4198" stop-color="#FCFCFC"/>
<stop offset="0.6878" stop-color="#F4F4F4"/>
<stop offset="0.9127" stop-color="#E5E5E5"/>
<stop offset="1" stop-color="#DDDDDD"/>
</linearGradient>
<linearGradient id="paint29_linear_1_373" x1="9.81172" y1="43.1726" x2="9.81172" y2="31.2574" gradientUnits="userSpaceOnUse">
<stop stop-color="white"/>
<stop offset="0.4198" stop-color="#FCFCFC"/>
<stop offset="0.6878" stop-color="#F4F4F4"/>
<stop offset="0.9127" stop-color="#E5E5E5"/>
<stop offset="1" stop-color="#DDDDDD"/>
</linearGradient>
<linearGradient id="paint30_linear_1_373" x1="14.5638" y1="37.9131" x2="14.5638" y2="36.6201" gradientUnits="userSpaceOnUse">
<stop stop-color="white"/>
<stop offset="0.4198" stop-color="#FCFCFC"/>
<stop offset="0.6878" stop-color="#F4F4F4"/>
<stop offset="0.9127" stop-color="#E5E5E5"/>
<stop offset="1" stop-color="#DDDDDD"/>
</linearGradient>
<linearGradient id="paint31_linear_1_373" x1="8.19664" y1="37.8511" x2="8.19664" y2="33.0705" gradientUnits="userSpaceOnUse">
<stop stop-color="white"/>
<stop offset="0.4198" stop-color="#FCFCFC"/>
<stop offset="0.6878" stop-color="#F4F4F4"/>
<stop offset="0.9127" stop-color="#E5E5E5"/>
<stop offset="1" stop-color="#DDDDDD"/>
</linearGradient>
<linearGradient id="paint32_linear_1_373" x1="9.80901" y1="37.8512" x2="9.80901" y2="36.5788" gradientUnits="userSpaceOnUse">
<stop stop-color="white"/>
<stop offset="0.4198" stop-color="#FCFCFC"/>
<stop offset="0.6878" stop-color="#F4F4F4"/>
<stop offset="0.9127" stop-color="#E5E5E5"/>
<stop offset="1" stop-color="#DDDDDD"/>
</linearGradient>
<linearGradient id="paint33_linear_1_373" x1="9.82973" y1="37.0114" x2="9.82973" y2="33.0706" gradientUnits="userSpaceOnUse">
<stop stop-color="white"/>
<stop offset="0.4198" stop-color="#FCFCFC"/>
<stop offset="0.6878" stop-color="#F4F4F4"/>
<stop offset="0.9127" stop-color="#E5E5E5"/>
<stop offset="1" stop-color="#DDDDDD"/>
</linearGradient>
<linearGradient id="paint34_linear_1_373" x1="7.91589" y1="37.2535" x2="7.91589" y2="36.9701" gradientUnits="userSpaceOnUse">
<stop stop-color="white"/>
<stop offset="0.4198" stop-color="#FCFCFC"/>
<stop offset="0.6878" stop-color="#F4F4F4"/>
<stop offset="0.9127" stop-color="#E5E5E5"/>
<stop offset="1" stop-color="#DDDDDD"/>
</linearGradient>
</defs>
</svg>
