<svg width="49" height="111" viewBox="0 0 49 111" fill="none" xmlns="http://www.w3.org/2000/svg">
<path d="M27.4257 15.1498L26.447 15.0982C26.447 16.0255 26.447 16.9527 26.447 17.9315L25.4167 18.9103L24.5409 17.983C24.5924 16.9527 24.5925 15.974 24.644 14.9952L22.6864 14.8407C22.841 14.9437 23.047 14.9952 23.2531 14.9437C23.1501 17.8285 23.047 20.7648 22.8925 23.7011L22.7895 23.8041L22.841 23.8556C22.6349 27.8737 22.4289 31.8918 22.1198 35.9614L21.8622 36.2705L22.1198 36.5281C21.2955 47.1915 19.9562 57.9064 18.0502 68.3122C17.9986 68.5183 17.9987 68.7243 17.9471 68.9304H18.4623H20.0077L24.6955 69.0334V68.4152L20.1107 68.3122L20.1622 67.9001L20.2138 67.9516L24.2318 64.0366L28.7651 68.6728L28.7136 68.4152L30.9802 68.4668C30.7741 68.4668 30.5166 67.2304 30.3105 65.3759C29.5378 59.1942 28.8166 45.8006 28.7136 44.2037C28.559 41.628 28.4045 39.0523 28.2499 36.425L28.353 36.322L28.1984 36.1675C28.0954 34.1584 27.9924 32.1494 27.9409 30.1403C27.7863 25.9677 27.6318 21.7435 27.4772 17.5709L27.6318 17.4164L27.4772 17.2618C27.4772 16.5406 27.4772 15.8194 27.4257 15.1498ZM20.3683 66.3032C20.6259 64.5002 20.8834 62.6972 21.141 60.8427L23.5107 63.2638L20.3683 66.3032ZM24.4894 18.6527L25.0561 19.2194L24.4379 19.8375C24.4894 19.4254 24.4894 19.0133 24.4894 18.6527ZM24.2318 25.2465L24.7985 25.8132L24.1803 26.4313C24.2318 26.0192 24.2318 25.6071 24.2318 25.2465ZM23.9228 31.4797L24.7985 32.4069L23.8197 33.3857C23.8713 32.716 23.9228 32.0979 23.9228 31.4797ZM23.5107 37.8674L24.5924 38.9492L23.3561 40.1341C23.4076 39.4129 23.4591 38.6402 23.5107 37.8674ZM22.944 44.6158L24.4379 46.1612L22.6349 47.9127C22.7894 46.8309 22.841 45.7491 22.944 44.6158ZM22.1713 52.3429L23.9228 54.1459L21.7077 56.3095C21.9137 54.9701 22.0683 53.6307 22.1713 52.3429ZM28.456 66.8698L24.9015 63.2638L27.8893 60.3276C28.0954 62.5427 28.3015 64.7062 28.456 66.8698ZM27.8378 58.9882L24.2318 62.5427L21.2956 59.5548C21.3986 58.9367 21.4501 58.267 21.5531 57.5973L24.5409 54.7125L27.7863 58.0609C27.7863 58.37 27.8378 58.6791 27.8378 58.9882ZM27.6833 56.7731L25.1076 54.1459L27.3742 51.9308C27.4772 53.5277 27.5803 55.1761 27.6833 56.7731ZM27.3227 50.7975L24.5409 53.5277L22.3258 51.2611C22.4289 50.5399 22.4804 49.8187 22.5834 49.046L25.0046 46.6763L27.2197 48.9945C27.2197 49.6126 27.2712 50.2308 27.3227 50.7975ZM27.1682 47.9127L25.5197 46.2127L27.0651 44.7188C27.0651 45.7491 27.1166 46.8309 27.1682 47.9127ZM26.9621 43.74L25.0046 45.6976L23.047 43.74C23.0985 42.9158 23.2016 42.0916 23.2531 41.2674L25.0561 39.5159L26.8075 41.3189C26.8591 42.0916 26.9106 42.9158 26.9621 43.74ZM26.8075 40.2371L25.5712 39.0007L26.7045 37.8674C26.756 38.6917 26.756 39.4644 26.8075 40.2371ZM26.7045 36.8887L25.1076 38.4856L23.6137 36.9402C23.6652 36.0129 23.7682 35.1372 23.8197 34.2099L25.3136 32.7675L26.653 34.1584C26.653 35.0857 26.653 36.0129 26.7045 36.8887ZM26.6015 33.3342L25.6742 32.4069L26.55 31.5312C26.55 32.0979 26.55 32.716 26.6015 33.3342ZM26.55 30.707L25.2621 31.9433L23.9743 30.6555C24.0258 29.5222 24.1288 28.3373 24.1288 27.1525L25.1591 26.1738L26.447 27.5131C26.4985 28.5434 26.4985 29.6252 26.55 30.707ZM26.447 26.7404L25.5197 25.8132L26.3954 24.9374C26.447 25.5556 26.447 26.1222 26.447 26.7404ZM26.447 24.2162L25.1591 25.4526L24.2834 24.5253C24.3349 23.1859 24.3864 21.8466 24.4379 20.5072L25.4167 19.58L26.447 20.6102C26.447 21.7951 26.447 23.0314 26.447 24.2162ZM26.447 19.9406L25.7773 19.2709L26.447 18.6012C26.447 19.0133 26.447 19.4769 26.447 19.9406Z" fill="url(#paint0_linear_1_360)"/>
<path d="M26.241 1.29224C26.6016 1.54981 26.8076 1.91041 26.8076 2.37403V5.05276C26.8592 5.15579 26.9107 5.25882 26.9107 5.31033C27.4258 6.34061 28.1985 6.75272 28.8682 6.75272C29.0227 6.75272 29.1258 6.85575 29.1258 7.01029C29.4349 8.04058 28.9197 8.34966 28.044 8.40117C28.044 8.8648 28.044 9.37994 27.9925 9.89508C28.7137 10.2042 29.0227 11.0799 28.8682 11.8526C28.7652 12.6253 28.3015 13.295 27.7864 13.8617C28.0955 13.9132 28.3016 14.3253 28.1985 14.6344C28.0955 14.9435 27.6834 15.098 27.4258 14.995C27.4258 15.0465 27.4258 15.1495 27.4258 15.201L26.4471 15.1495L24.5925 15.0465L22.635 14.8919C22.532 14.8404 22.4289 14.6859 22.4289 14.5829C22.3259 14.2738 22.635 13.9132 22.9441 13.8617C22.0168 12.9859 21.1411 10.3587 22.8411 9.84356C22.8411 9.32843 22.8411 8.81328 22.8411 8.29815H22.0684C21.9138 8.29815 21.8108 8.19512 21.8108 8.04058V6.90727C21.8108 6.75273 21.9138 6.6497 22.0684 6.6497C22.738 6.6497 23.5107 6.2891 24.0259 5.25882C24.0774 5.15579 24.1289 5.05276 24.1804 4.94973V2.37403C24.1804 1.91041 24.438 1.4983 24.8501 1.29224C24.8501 1.03467 24.9016 0.777102 25.0047 0.622559C25.1077 0.416503 25.3137 0.261963 25.5198 0.261963C25.5198 0.261963 25.5198 0.261963 25.5713 0.261963C25.7774 0.261963 25.9834 0.416499 26.0864 0.674069C26.1895 0.777097 26.241 1.03467 26.241 1.29224Z" fill="url(#paint1_linear_1_360)"/>
<path d="M24.6955 68.3121L18.4108 68.209H17.8956L24.6955 68.3121Z" fill="url(#paint2_linear_1_360)"/>
<path d="M24.6954 68.312L30.9802 68.415L24.6954 68.312Z" fill="url(#paint3_linear_1_360)"/>
<path d="M46.8465 108.441L44.8375 104.99V104.938L44.6829 104.629C44.6829 104.629 44.6829 104.629 44.6829 104.578L41.7981 99.5809C41.7981 99.5809 41.7981 99.5809 41.7981 99.5294C41.7981 99.4264 41.7466 99.3233 41.6436 99.2718L41.1285 98.3961C41.1285 98.3961 41.1285 98.3961 41.1285 98.3446L39.5315 95.5628C39.48 95.5628 39.48 95.5628 39.4285 95.5628V95.6143L24.3864 95.5113L9.44733 95.4083L8.93219 96.2325L7.95341 97.7779C7.95341 97.7779 7.95341 97.7779 7.95341 97.8294L7.38677 98.7567C7.38677 98.7567 7.38677 98.7567 7.38677 98.8082L4.24441 103.857C4.24441 103.857 4.24441 103.857 4.24441 103.908L1.92628 107.617C1.92628 107.617 1.92628 107.617 1.92628 107.669L0.432373 110.09L11.3533 110.193C11.5079 109.832 11.6624 109.472 11.817 109.111C12.8472 107.102 14.3927 105.557 16.1957 104.475C16.5047 104.269 16.8653 104.063 17.2259 103.908C17.3805 103.805 17.535 103.754 17.6896 103.702C19.3895 102.929 21.2955 102.466 23.2016 102.363C23.6137 102.363 24.0258 102.311 24.3864 102.311C24.4379 102.311 24.4379 102.311 24.4894 102.311C26.756 102.363 29.2287 102.981 31.2378 103.908H31.2893C31.4438 104.011 31.5984 104.063 31.7529 104.166C32.1135 104.372 32.4226 104.578 32.7317 104.784C32.9892 104.938 33.2468 105.144 33.5044 105.35C33.8134 105.608 34.2771 106.02 34.6377 106.278C34.6377 106.278 35.4619 107.153 35.8225 107.669C36.4407 108.493 36.9558 109.42 37.3679 110.399L48.1859 110.502L46.8465 108.441Z" fill="url(#paint4_linear_1_360)"/>
<path d="M32.6801 74.7C32.577 74.1848 32.474 73.6697 32.371 73.1546L32.4225 73L24.6439 72.9485L17.4319 72.897C17.2774 73.6182 17.0713 74.2879 16.9168 74.9575C16.9168 74.9575 16.9168 74.9575 16.9168 75.0091C16.7622 75.6272 16.6077 76.1939 16.4531 76.7605C15.8865 78.7696 15.2683 80.5211 14.5987 82.221C13.8775 84.0755 13.0532 85.8785 12.1775 87.63C11.8684 88.2482 11.5593 88.8148 11.2502 89.433L20.0076 89.4845L20.0591 89.3815C20.1622 88.9178 20.3167 88.4542 20.4197 87.9391C20.4197 87.9391 20.4197 87.9391 20.4197 87.8876C20.7803 86.4967 21.0894 85.0543 21.347 83.6119C21.6046 82.221 21.8621 80.7271 22.1197 79.1302V79.0787C22.1712 78.7696 22.2227 78.409 22.2742 78.0999L24.5924 78.1514L27.3741 78.2029C27.4256 78.512 27.4256 78.8726 27.4772 79.1817C27.4772 79.1817 27.4772 79.1817 27.4772 79.2332C27.6832 80.8301 27.8893 82.324 28.0953 83.7149C28.0953 83.7149 28.0953 83.7149 28.0953 83.7664C28.3529 85.2603 28.6105 86.6512 28.9195 88.0936V88.1451C29.0226 88.7118 29.1771 89.0209 29.2802 89.5875L37.883 89.639C35.6164 84.9513 34.0709 80.9847 32.6801 74.7Z" fill="url(#paint5_linear_1_360)"/>
<path d="M39.4285 89.6389L37.8831 89.5874L29.2803 89.5359C29.1773 88.9692 29.0227 88.6602 28.9197 88.0935C29.0227 88.5571 29.1257 89.0723 29.2288 89.5359L24.438 89.4844L20.0078 89.4329L11.2504 89.3814H10.6837H9.96253C9.96253 89.3814 9.96253 89.3814 9.91101 89.3814C9.80799 89.3814 9.70496 89.4844 9.70496 89.6389L9.60193 92.4207L9.39587 95.46L24.3349 95.563L39.377 95.6661L39.4285 89.6389Z" fill="url(#paint6_linear_1_360)"/>
<path d="M33.5559 68.7244V69.2395L32.4226 72.897L24.644 72.8455L17.432 72.794L16.3502 68.9304V68.4153C16.3502 68.2608 16.4532 68.1577 16.6078 68.1577H17.8956H17.9987L20.1107 68.2092L24.6955 68.3123L28.6106 68.3638L30.9802 68.4153H31.4953L33.2983 68.4668C33.4529 68.4668 33.5559 68.5698 33.5559 68.7244Z" fill="url(#paint7_linear_1_360)"/>
<defs>
<linearGradient id="paint0_linear_1_360" x1="24.4396" y1="68.947" x2="24.4396" y2="14.8217" gradientUnits="userSpaceOnUse">
<stop stop-color="white"/>
<stop offset="0.4198" stop-color="#FCFCFC"/>
<stop offset="0.6878" stop-color="#F4F4F4"/>
<stop offset="0.9127" stop-color="#E5E5E5"/>
<stop offset="1" stop-color="#DDDDDD"/>
</linearGradient>
<linearGradient id="paint1_linear_1_360" x1="25.4938" y1="15.1388" x2="25.4938" y2="0.19685" gradientUnits="userSpaceOnUse">
<stop stop-color="white"/>
<stop offset="0.4198" stop-color="#FCFCFC"/>
<stop offset="0.6878" stop-color="#F4F4F4"/>
<stop offset="0.9127" stop-color="#E5E5E5"/>
<stop offset="1" stop-color="#DDDDDD"/>
</linearGradient>
<linearGradient id="paint2_linear_1_360" x1="21.2903" y1="68.3141" x2="21.2903" y2="68.1951" gradientUnits="userSpaceOnUse">
<stop stop-color="white"/>
<stop offset="0.4198" stop-color="#FCFCFC"/>
<stop offset="0.6878" stop-color="#F4F4F4"/>
<stop offset="0.9127" stop-color="#E5E5E5"/>
<stop offset="1" stop-color="#DDDDDD"/>
</linearGradient>
<linearGradient id="paint3_linear_1_360" x1="27.8369" y1="68.4201" x2="27.8369" y2="68.309" gradientUnits="userSpaceOnUse">
<stop stop-color="white"/>
<stop offset="0.4198" stop-color="#FCFCFC"/>
<stop offset="0.6878" stop-color="#F4F4F4"/>
<stop offset="0.9127" stop-color="#E5E5E5"/>
<stop offset="1" stop-color="#DDDDDD"/>
</linearGradient>
<linearGradient id="paint4_linear_1_360" x1="24.1273" y1="110.476" x2="24.1273" y2="95.4825" gradientUnits="userSpaceOnUse">
<stop stop-color="white"/>
<stop offset="0.4198" stop-color="#FCFCFC"/>
<stop offset="0.6878" stop-color="#F4F4F4"/>
<stop offset="0.9127" stop-color="#E5E5E5"/>
<stop offset="1" stop-color="#DDDDDD"/>
</linearGradient>
<linearGradient id="paint5_linear_1_360" x1="24.551" y1="89.5593" x2="24.551" y2="72.881" gradientUnits="userSpaceOnUse">
<stop stop-color="white"/>
<stop offset="0.4198" stop-color="#FCFCFC"/>
<stop offset="0.6878" stop-color="#F4F4F4"/>
<stop offset="0.9127" stop-color="#E5E5E5"/>
<stop offset="1" stop-color="#DDDDDD"/>
</linearGradient>
<linearGradient id="paint6_linear_1_360" x1="24.4084" y1="95.7092" x2="24.4084" y2="88.0289" gradientUnits="userSpaceOnUse">
<stop stop-color="white"/>
<stop offset="0.4198" stop-color="#FCFCFC"/>
<stop offset="0.6878" stop-color="#F4F4F4"/>
<stop offset="0.9127" stop-color="#E5E5E5"/>
<stop offset="1" stop-color="#DDDDDD"/>
</linearGradient>
<linearGradient id="paint7_linear_1_360" x1="24.958" y1="72.9905" x2="24.958" y2="68.171" gradientUnits="userSpaceOnUse">
<stop stop-color="white"/>
<stop offset="0.4198" stop-color="#FCFCFC"/>
<stop offset="0.6878" stop-color="#F4F4F4"/>
<stop offset="0.9127" stop-color="#E5E5E5"/>
<stop offset="1" stop-color="#DDDDDD"/>
</linearGradient>
</defs>
</svg>
