<svg viewBox="0 0 437 308" fill="none" xmlns="http://www.w3.org/2000/svg">
<g clip-path="url(#clip0_114_17)">
<path d="M121.148 217.763C175.548 217.763 219.648 173.439 219.648 118.763C219.648 64.0868 175.548 19.7629 121.148 19.7629C66.7479 19.7629 22.6479 64.0868 22.6479 118.763C22.6479 173.439 66.7479 217.763 121.148 217.763Z" fill="#FA9E42"/>
<g filter="url(#filter0_f_114_17)">
<path d="M114.03 104.684C146.767 87.2964 165.077 57.7096 154.928 38.6004C144.778 19.4912 110.012 18.0957 77.2749 35.4835C44.5383 52.8714 26.228 82.4581 36.3778 101.567C46.5275 120.677 81.2938 122.072 114.03 104.684Z" fill="#F8E36F"/>
</g>
<g filter="url(#filter1_d_114_17)">
<path d="M314.993 281.763H123.561C104.991 281.749 87.1455 274.551 73.7616 261.678C60.3777 248.804 52.4927 231.252 51.7572 212.696C51.0217 194.14 57.4927 176.019 69.8156 162.127C82.1386 148.234 99.358 139.647 117.869 138.163C120.509 119.523 128.926 102.18 141.937 88.5728C154.947 74.9661 171.896 65.7809 190.4 62.3093C208.903 58.8377 228.029 61.2544 245.087 69.2196C262.145 77.1848 276.276 90.2975 285.493 106.713C302.398 100.861 320.663 100.177 337.959 104.749C355.254 109.321 370.796 118.94 382.601 132.382C394.406 145.823 401.941 162.476 404.242 180.216C406.544 197.957 403.509 215.981 395.525 231.99C390.839 246.453 381.692 259.061 369.397 268.003C357.101 276.945 342.289 281.762 327.085 281.763H314.993Z" fill="url(#paint0_linear_114_17)"/>
<path d="M327.085 280.762C334.804 280.762 342.394 279.53 349.644 277.099C356.654 274.748 363.235 271.318 369.205 266.903C375.106 262.539 380.279 257.311 384.58 251.365C388.935 245.345 392.297 238.723 394.573 231.682L394.597 231.61L394.631 231.542C397.658 225.494 399.989 219.096 401.559 212.526C403.174 205.766 403.993 198.78 403.993 191.762C403.993 185.723 403.385 179.688 402.185 173.825C401.016 168.111 399.271 162.491 397 157.12C394.769 151.847 392.008 146.76 388.794 142.003C385.61 137.29 381.953 132.858 377.926 128.83C373.898 124.802 369.466 121.146 364.753 117.962C359.995 114.747 354.909 111.987 349.636 109.756C344.265 107.485 338.645 105.74 332.931 104.571C327.067 103.371 321.032 102.762 314.993 102.762C304.994 102.762 295.178 104.408 285.82 107.654L285.031 107.927L284.621 107.199C277.005 93.6572 265.927 82.2846 252.585 74.3108C245.837 70.2782 238.588 67.1619 231.039 65.0486C223.25 62.8684 215.16 61.7629 206.993 61.7629C196.009 61.7629 185.286 63.7399 175.123 67.639C165.305 71.4056 156.298 76.8467 148.353 83.8109C140.454 90.7352 133.899 98.9051 128.869 108.094C123.716 117.508 120.349 127.67 118.859 138.298L118.748 139.093L117.947 139.156C108.989 139.857 100.37 142.216 92.3297 146.166C84.5173 150.005 77.5411 155.196 71.5949 161.597C59.3768 174.75 52.6479 191.886 52.6479 209.85C52.6479 219.423 54.5227 228.71 58.2202 237.452C59.9974 241.653 62.1971 245.706 64.7582 249.497C67.2951 253.252 70.2087 256.783 73.4179 259.993C76.627 263.202 80.1583 266.115 83.9135 268.652C87.7044 271.213 91.757 273.413 95.9586 275.19C104.7 278.888 113.987 280.762 123.561 280.762H314.993H327.085ZM327.085 281.762H314.993H123.561C83.8445 281.762 51.6479 249.566 51.6479 209.85C51.6479 172.049 80.8126 141.06 117.869 138.159C123.998 94.4203 161.565 60.7629 206.993 60.7629C240.695 60.7629 270.07 79.2861 285.492 106.709C294.735 103.504 304.66 101.762 314.993 101.762C364.699 101.762 404.993 142.057 404.993 191.762C404.993 206.222 401.584 219.884 395.525 231.99C386.188 260.872 359.075 281.762 327.085 281.762Z" fill="white" fill-opacity="0.5"/>
</g>
</g>
<defs>
<filter id="filter0_f_114_17" x="13.5776" y="3.30322" width="164.15" height="133.561" filterUnits="userSpaceOnUse" color-interpolation-filters="sRGB">
<feFlood flood-opacity="0" result="BackgroundImageFix"/>
<feBlend mode="normal" in="SourceGraphic" in2="BackgroundImageFix" result="shape"/>
<feGaussianBlur stdDeviation="10" result="effect1_foregroundBlur_114_17"/>
</filter>
<filter id="filter1_d_114_17" x="31.6479" y="32.7629" width="413.345" height="281" filterUnits="userSpaceOnUse" color-interpolation-filters="sRGB">
<feFlood flood-opacity="0" result="BackgroundImageFix"/>
<feColorMatrix in="SourceAlpha" type="matrix" values="0 0 0 0 0 0 0 0 0 0 0 0 0 0 0 0 0 0 127 0" result="hardAlpha"/>
<feOffset dx="10" dy="2"/>
<feGaussianBlur stdDeviation="15"/>
<feColorMatrix type="matrix" values="0 0 0 0 0.258824 0 0 0 0 0.627451 0 0 0 0 0.941176 0 0 0 0.596 0"/>
<feBlend mode="normal" in2="BackgroundImageFix" result="effect1_dropShadow_114_17"/>
<feBlend mode="normal" in="SourceGraphic" in2="effect1_dropShadow_114_17" result="shape"/>
</filter>
<linearGradient id="paint0_linear_114_17" x1="228.346" y1="60.7654" x2="330.989" y2="308.929" gradientUnits="userSpaceOnUse">
<stop stop-color="white" stop-opacity="0.604"/>
<stop offset="1" stop-color="white" stop-opacity="0.2"/>
</linearGradient>
<clipPath id="clip0_114_17">
<rect width="437" height="308" fill="white"/>
</clipPath>
</defs>
</svg>
