<svg viewBox="0 0 84 50" fill="none" xmlns="http://www.w3.org/2000/svg">
<path d="M45.6005 6.45785L45.1369 3.21246L44.6733 0.0701141L0.0621338 0.121616V6.50937V6.56087L45.6005 6.45785Z" fill="url(#paint0_linear_1_456)"/>
<path d="M55.4913 48.9054L0.216796 49.0085V45.7631L55.4913 45.6601L83.0513 45.6085V32.3179L55.4913 32.3694L0.216796 32.4209V29.1756L55.4913 29.0725L83.0513 29.021V15.3183L55.4913 15.3698L0.165283 15.4213V12.1759L55.4398 12.0729L54.358 6.45788H45.6006V6.40636L0.11377 6.45788L0.165283 49.8327L55.4913 49.7297L83.0513 49.6781V48.6994L55.4913 48.9054ZM77.7969 33.9664C79.2908 33.9664 80.4756 35.1512 80.4756 36.6451V36.6966V42.7237H75.0667V36.6966C75.1182 35.2027 76.303 33.9664 77.7969 33.9664ZM69.7607 33.9664C71.2546 33.9664 72.4395 35.1512 72.491 36.6451V36.6966V42.7237H67.082V36.6966C67.0305 35.2027 68.2668 33.9664 69.7607 33.9664ZM61.673 33.9664C63.1669 33.9664 64.3517 35.1512 64.4033 36.6451V36.6966V42.7237H58.9943V36.6966C58.9943 35.2027 60.1791 33.9664 61.673 33.9664ZM53.5853 34.0179C54.3065 34.0179 54.9762 34.2754 55.4398 34.7391C55.955 35.2027 56.264 35.9239 56.264 36.6451V36.6966V42.7237H55.4398H50.9066V36.6966C50.9066 35.2027 52.1429 34.0179 53.5853 34.0179ZM45.5491 34.0179C47.043 34.0179 48.2279 35.2027 48.2279 36.6966V36.7481V42.7753H42.8189V36.7481C42.8704 35.2542 44.0552 34.0179 45.5491 34.0179ZM37.4614 34.0179C38.9553 34.0179 40.1402 35.2027 40.1402 36.6451V36.6966V42.7237H34.7312V36.6966C34.7827 35.2542 35.9675 34.0179 37.4614 34.0179ZM29.4252 34.0179C30.9192 34.0179 32.104 35.2027 32.104 36.6966V36.7481V42.7753H26.695V36.7481C26.695 35.2542 27.9313 34.0179 29.4252 34.0179ZM21.3375 34.0694C22.8315 34.0694 24.0163 35.2542 24.0678 36.7481V36.7996V42.8268H18.6588V36.7996C18.6588 35.2542 19.8436 34.0694 21.3375 34.0694ZM13.2498 34.0694C14.7437 34.0694 15.9286 35.2542 15.9801 36.7481V36.7996V42.8268H10.5711V36.7996C10.5711 35.3057 11.8074 34.0694 13.2498 34.0694ZM5.21366 34.0694C6.70756 34.0694 7.89239 35.2542 7.89239 36.7481V36.7996V42.8268H2.48341V36.7996C2.53493 35.3057 3.71975 34.0694 5.21366 34.0694ZM77.7969 17.4304C79.2908 17.4304 80.4756 18.6152 80.4756 20.1091V20.1606V26.1877H75.0667V20.1606C75.0667 18.6152 76.303 17.4304 77.7969 17.4304ZM69.7092 17.4304C71.2031 17.4304 72.3879 18.6152 72.3879 20.0576V20.1091V26.1362H66.979V20.1091C67.0305 18.6152 68.2153 17.4304 69.7092 17.4304ZM61.673 17.4304C63.1669 17.4304 64.3518 18.6152 64.3518 20.0576V20.1091V26.1362H58.9428V20.1091C58.9428 18.6667 60.1791 17.4304 61.673 17.4304ZM53.5853 17.4304C54.3065 17.4304 54.9247 17.6879 55.4398 18.1516C55.955 18.6152 56.264 19.3364 56.264 20.0576V20.1091V26.1362H55.4398H50.9066V20.1091C50.9066 18.6667 52.0914 17.4304 53.5853 17.4304ZM45.4976 17.4819C46.9915 17.4819 48.1763 18.6667 48.2279 20.1606V20.2121V26.2393H42.8189V20.2121C42.8189 18.6667 44.0037 17.4819 45.4976 17.4819ZM37.4614 17.4819C38.9553 17.4819 40.1402 18.6667 40.1917 20.1606V20.2121V26.2393H34.7827V20.2121C34.7312 18.6667 35.9675 17.4819 37.4614 17.4819ZM29.3737 17.4819C30.8676 17.4819 32.0525 18.6667 32.0525 20.1606V20.2121V26.2393H26.6435V20.2121C26.695 18.7182 27.8798 17.4819 29.3737 17.4819ZM21.3375 17.4819C22.8315 17.4819 24.0163 18.6667 24.0163 20.1606V20.2121V26.2393H18.6073V20.2121C18.6073 18.7182 19.8436 17.4819 21.3375 17.4819ZM13.2498 17.5334C14.7437 17.5334 15.9286 18.7182 15.9286 20.1606V20.2121V26.2393H10.5196V20.2121C10.5711 18.7182 11.7559 17.5334 13.2498 17.5334ZM5.16214 17.5334C6.65605 17.5334 7.84087 18.7182 7.84087 20.2121V20.2636V26.2908H2.4319V20.2636C2.48341 18.7182 3.71975 17.5334 5.16214 17.5334ZM45.137 7.59118H45.3431C47.3521 7.59118 48.9491 9.18812 48.9491 11.1972H41.5826C41.531 9.23963 43.128 7.64269 45.137 7.59118ZM35.3494 7.59118H35.5554C37.5645 7.59118 39.1614 9.18812 39.1614 11.1972H31.7949C31.7949 9.23963 33.3918 7.64269 35.3494 7.59118ZM25.6647 7.6427H25.8708C27.8798 7.6427 29.4768 9.23963 29.4768 11.2487H22.1103C22.0587 9.23963 23.6557 7.6427 25.6647 7.6427ZM15.8771 7.6427H16.0831C18.0922 7.6427 19.6891 9.23963 19.6891 11.2487H12.3226C12.3226 9.29115 13.9195 7.6427 15.8771 7.6427ZM6.19242 7.6427H6.39848C8.40753 7.6427 10.0045 9.23963 10.0045 11.2487H2.63796C2.58644 9.29115 4.18337 7.69421 6.19242 7.6427Z" fill="url(#paint1_linear_1_456)"/>
<path d="M82.9998 12.0728V12.1758V15.3181L55.4398 15.3696L0.165283 15.4212V12.1758L55.4398 12.0728V12.1243L82.9998 12.0728Z" fill="url(#paint2_linear_1_456)"/>
<path d="M82.9998 12.0728L55.4398 12.1243V12.0728H82.9998Z" fill="url(#paint3_linear_1_456)"/>
<path d="M83.0513 29.0211V32.2665L55.4398 32.318L0.216796 32.421L0.165283 29.1241L55.4398 29.0726L83.0513 29.0211Z" fill="url(#paint4_linear_1_456)"/>
<path d="M45.6006 6.45775L0.11377 6.56077V6.50927V3.3154L45.137 3.26388L45.6006 6.45775Z" fill="url(#paint5_linear_1_456)"/>
<path d="M83.0513 45.5572V48.8541L55.4913 48.9056L0.216797 48.9571V45.7117L55.4913 45.6087L83.0513 45.5572Z" fill="url(#paint6_linear_1_456)"/>
<defs>
<linearGradient id="paint0_linear_1_456" x1="22.8487" y1="6.8459" x2="22.7334" y2="-0.224659" gradientUnits="userSpaceOnUse">
<stop stop-color="white"/>
<stop offset="0.4198" stop-color="#FCFCFC"/>
<stop offset="0.6878" stop-color="#F4F4F4"/>
<stop offset="0.9127" stop-color="#E5E5E5"/>
<stop offset="1" stop-color="#DDDDDD"/>
</linearGradient>
<linearGradient id="paint1_linear_1_456" x1="41.8801" y1="50.4811" x2="41.1529" y2="5.87415" gradientUnits="userSpaceOnUse">
<stop stop-color="white"/>
<stop offset="0.4198" stop-color="#FCFCFC"/>
<stop offset="0.6878" stop-color="#F4F4F4"/>
<stop offset="0.9127" stop-color="#E5E5E5"/>
<stop offset="1" stop-color="#DDDDDD"/>
</linearGradient>
<linearGradient id="paint2_linear_1_456" x1="41.6191" y1="15.9953" x2="41.5459" y2="11.5037" gradientUnits="userSpaceOnUse">
<stop stop-color="white"/>
<stop offset="0.4198" stop-color="#FCFCFC"/>
<stop offset="0.6878" stop-color="#F4F4F4"/>
<stop offset="0.9127" stop-color="#E5E5E5"/>
<stop offset="1" stop-color="#DDDDDD"/>
</linearGradient>
<linearGradient id="paint3_linear_1_456" x1="69.2248" y1="12.3035" x2="69.2177" y2="11.8691" gradientUnits="userSpaceOnUse">
<stop stop-color="white"/>
<stop offset="0.4198" stop-color="#FCFCFC"/>
<stop offset="0.6878" stop-color="#F4F4F4"/>
<stop offset="0.9127" stop-color="#E5E5E5"/>
<stop offset="1" stop-color="#DDDDDD"/>
</linearGradient>
<linearGradient id="paint4_linear_1_456" x1="41.647" y1="32.9598" x2="41.5739" y2="28.4734" gradientUnits="userSpaceOnUse">
<stop stop-color="white"/>
<stop offset="0.4198" stop-color="#FCFCFC"/>
<stop offset="0.6878" stop-color="#F4F4F4"/>
<stop offset="0.9127" stop-color="#E5E5E5"/>
<stop offset="1" stop-color="#DDDDDD"/>
</linearGradient>
<linearGradient id="paint5_linear_1_456" x1="22.8499" y1="6.8445" x2="22.7863" y2="2.93905" gradientUnits="userSpaceOnUse">
<stop stop-color="white"/>
<stop offset="0.4198" stop-color="#FCFCFC"/>
<stop offset="0.6878" stop-color="#F4F4F4"/>
<stop offset="0.9127" stop-color="#E5E5E5"/>
<stop offset="1" stop-color="#DDDDDD"/>
</linearGradient>
<linearGradient id="paint6_linear_1_456" x1="41.6735" y1="49.515" x2="41.6003" y2="45.0234" gradientUnits="userSpaceOnUse">
<stop stop-color="white"/>
<stop offset="0.4198" stop-color="#FCFCFC"/>
<stop offset="0.6878" stop-color="#F4F4F4"/>
<stop offset="0.9127" stop-color="#E5E5E5"/>
<stop offset="1" stop-color="#DDDDDD"/>
</linearGradient>
</defs>
</svg>
