<svg viewBox="0 0 36 107" fill="none" xmlns="http://www.w3.org/2000/svg">
    <path d="M35.1046 81.0238C34.9501 74.7906 34.2804 68.4028 33.044 62.2211C33.044 62.1181 32.9925 62.0666 32.9925 61.9636C32.5804 59.903 32.1168 57.8939 31.6016 55.9364C31.6016 55.8849 31.6016 55.8334 31.5501 55.8334C31.2926 54.8546 31.035 53.9274 30.7774 52.9486V52.8971C30.1593 50.785 29.4896 48.776 28.7684 46.8184C28.7169 46.7154 28.7169 46.6639 28.6653 46.6124C28.2532 45.5306 27.7896 44.4488 27.326 43.367V43.3155C27.1199 42.8519 26.9139 42.3882 26.7078 41.9246C26.7078 41.8731 26.6563 41.8216 26.6563 41.7701C26.4502 41.3579 26.2442 40.8943 26.0381 40.4822L25.9351 40.2762C24.6988 37.752 23.3079 35.4853 21.814 33.4763L15.3747 33.4248C12.0263 25.8007 8.2658 19.4645 4.55679 15.3949L4.71133 0.661865L1.31141 4.88601L0.281128 106.626L3.62954 106.678L31.3441 106.935C32.3744 104.36 33.1986 101.423 33.7652 98.3325C33.7652 98.2809 33.7652 98.2294 33.8168 98.1779C34.1258 96.684 34.3319 95.0871 34.5379 93.4901C34.8985 90.5023 35.1046 87.4115 35.1046 84.2176V84.1661C35.1561 83.1358 35.1561 82.1055 35.1046 81.0238ZM30.8289 74.6875C30.932 75.7693 30.9835 76.8511 31.035 77.8814L26.2442 77.8299C26.1412 76.7481 26.0897 75.6663 25.9866 74.636L30.8289 74.6875ZM27.532 55.8849C27.8411 56.9667 28.0987 57.997 28.3563 59.1303L23.5139 59.0273C23.2564 57.8939 23.0503 56.8637 22.7928 55.7819L27.532 55.8849ZM19.7019 55.7819C19.9595 56.8122 20.2171 57.8939 20.4746 59.0273L4.71133 58.8727L4.76285 55.6788L19.7019 55.7819ZM4.76285 52.588L4.81436 49.3941L18.0535 49.5487C18.208 50.0638 18.3625 50.579 18.5171 51.0941C18.6716 51.6608 18.8262 52.2274 18.9807 52.7941L4.76285 52.588ZM21.0928 62.0666C21.2988 63.0969 21.5049 64.1787 21.6594 65.2605L4.6083 65.1059L4.65982 61.912L21.0928 62.0666ZM22.1746 68.3513C22.3291 69.3816 22.4837 70.4634 22.6382 71.5452L4.6083 71.3906L4.65982 68.1967L22.1746 68.3513ZM22.9473 74.636C23.0503 75.6663 23.1534 76.7481 23.2049 77.8299L4.50528 77.6238L4.55679 74.4299L22.9473 74.636ZM23.4624 80.9207C23.514 81.951 23.5655 83.0328 23.5655 84.1146L4.45376 83.9085L4.50528 80.7147L23.4624 80.9207ZM26.6563 52.7941L22.02 52.7425C21.814 51.8668 21.5564 51.0426 21.3504 50.2184C21.2988 49.9608 21.1958 49.7547 21.1443 49.4972L25.5745 49.5487C25.9351 50.6305 26.2957 51.7123 26.6563 52.7941ZM22.9988 43.3155C23.5139 44.3458 23.9776 45.4276 24.3897 46.5609L20.2171 46.5093C19.8565 45.4276 19.5474 44.3458 19.1868 43.3155H22.9988ZM19.7019 37.3914C20.2686 38.2671 20.8352 39.2459 21.4019 40.2246L18.105 40.1731C17.7444 39.2459 17.3838 38.3186 17.0232 37.3914H19.7019ZM15.9929 43.2125C16.3535 44.2942 16.7141 45.3245 17.0747 46.4578L4.81436 46.3548L4.86587 43.1609L15.9929 43.2125ZM14.9111 40.1731L4.91739 40.0701V37.2883L13.7778 37.3914C14.1899 38.2671 14.5505 39.1944 14.9111 40.1731ZM4.50528 19.9796C7.13249 23.4826 9.70819 28.0673 12.1294 33.3218L4.40225 33.2702L4.50528 19.9796ZM22.5352 102.917L4.24771 102.763L4.29922 99.5173L22.9473 99.7233C22.8443 100.754 22.6897 101.835 22.5352 102.917ZM23.2564 96.6325L4.35073 96.4264L4.40225 93.2326L23.4624 93.4386C23.4109 94.5204 23.3079 95.5507 23.2564 96.6325ZM23.5655 90.3993L4.40225 90.1932L4.45376 86.9994L23.617 87.2054C23.617 88.2357 23.617 89.3175 23.5655 90.3993ZM24.1321 62.1181L29.0259 62.1696C29.232 63.2514 29.4381 64.2817 29.6441 65.3635L24.7503 65.312C24.5442 64.2302 24.3382 63.1484 24.1321 62.1181ZM30.1077 68.4543C30.2623 69.5361 30.4168 70.5664 30.5199 71.6482L25.626 71.5967C25.4715 70.5149 25.3685 69.4331 25.2139 68.4028L30.1077 68.4543ZM28.5623 102.969L25.5745 102.917C25.7291 101.835 25.8321 100.754 25.9351 99.7233L29.4381 99.7748C29.1805 100.857 28.8714 101.938 28.5623 102.969ZM30.0562 96.684L26.2442 96.6325C26.3472 95.5507 26.3987 94.5204 26.4502 93.4386L30.5714 93.4901C30.4168 94.5719 30.2623 95.6537 30.0562 96.684ZM30.8805 90.4508L26.5533 90.3993C26.6048 89.3175 26.6048 88.2357 26.6048 87.2054L31.0865 87.2569C31.035 88.3387 30.9835 89.369 30.8805 90.4508ZM26.5533 84.1146C26.5533 83.0328 26.5018 81.951 26.4502 80.9207L31.1895 80.9722C31.1895 82.054 31.2411 83.1358 31.1895 84.1661L26.5533 84.1146Z"
          fill="currentColor"/>
    <defs>
        <linearGradient id="paint0_linear_1_425" x1="16.5089" y1="53.8541" x2="15.9935" y2="36.4216"
                        gradientUnits="userSpaceOnUse">
            <stop stop-color="currentColor"/>
            <stop offset="0.4198" stop-color="currentColor"/>
            <stop offset="0.6878" stop-color="currentColor"/>
            <stop offset="0.9127" stop-color="currentColor"/>
            <stop offset="1" stop-color="currentColor"/>
        </linearGradient>
    </defs>
</svg>
